<?xml version='1.0' encoding='UTF-8' standalone='no'?>
<!-- Created with Fritzing (https://fritzing.org/) -->
<svg xmlns="http://www.w3.org/2000/svg" baseProfile="tiny" height="0.320028in" version="1.2" viewBox="0 0 0 320.028" width="0in" x="0in"  xmlns:svg="http://www.w3.org/2000/svg" y="0in">
 <g id="watermark" >
  <g >
   <g >
    <path d="M-343.5,233.917c-8.38889,0,-15.7083,4.51389,-19.75,11.2361l-38.8333,0l55,-56.5417c2.02778,-2.02778,4.01389,-4.47222,5.94444,-7.23611c2.06944,-3.08333,3.16667,-6.65278,3.16667,-10.6667c0,-3.875,-1.34722,-7.19444,-3.98611,-9.86111c-2.63889,-2.61111,-6.16667,-3.98611,-10.4722,-3.98611l-64.3889,0c-4.23611,0,-7.70833,0.833333,-10.3056,2.36111c-3.04167,1.80556,-4.58333,5.11111,-4.58333,9.81944c0,4.56944,1.54167,7.80556,4.58333,9.61111c2.61111,1.54167,6.08333,2.33333,10.3056,2.33333l43.7222,0l-55.1944,56.75c-2.02778,2.04167,-4.01389,4.375,-5.90278,7c-2.125,2.94444,-3.19444,6.55556,-3.19444,10.7083c0,3.88889,1.33333,7.23611,4,9.875c2.61111,2.61111,6.13889,3.95833,10.4722,3.95833l59.9306,0c4.06944,6.48611,11.2778,10.7778,19.4444,10.7778c12.7222,0,23.0556,-10.3333,23.0556,-23.0694C-320.459,244.264,-330.806,233.917,-343.5,233.917zM-343.5,265.347c-4.63889,0,-8.38889,-3.76389,-8.38889,-8.38889c0,-4.625,3.75,-8.38889,8.38889,-8.38889c4.61111,0,8.38889,3.76389,8.38889,8.38889C-335.125,261.611,-338.889,265.347,-343.5,265.347z" fill="#8C8C8C" />
    <path d="M-578.82,94.4444c-12.6944,0,-23.0417,10.3472,-23.0417,23.0556c0,12.7222,10.3472,23.0556,23.0417,23.0556s23.0278,-10.3333,23.0278,-23.0556C-555.764,104.792,-566.098,94.4444,-578.82,94.4444zM-578.806,125.875c-4.625,0,-8.38889,-3.75,-8.38889,-8.375s3.76389,-8.375,8.38889,-8.375c4.59722,0,8.38889,3.75,8.38889,8.375S-574.209,125.875,-578.806,125.875z" fill="#8C8C8C" />
    <path d="M-460.473,159.194c-2.68056,-1.54167,-6.09722,-2.34722,-10.1667,-2.34722l-20.3472,0L-490.986,121.819c0,-4.05556,-0.791667,-7.47222,-2.30556,-10.125C-494.542,109.514,-497.223,106.944,-502.917,106.944c-4.72222,0,-8.02778,1.61111,-9.84722,4.75c-1.51389,2.68056,-2.31944,6.08333,-2.31944,10.125l0,35.0139l-6.68056,0c-4.09722,0,-7.48611,0.833333,-10.1528,2.34722c-3.16667,1.79167,-4.73611,5.11111,-4.73611,9.83333c0,5.72222,2.56944,8.375,4.73611,9.61111c2.66667,1.54167,6.08333,2.33333,10.1528,2.33333l6.68056,0l0,60.5833c0,3.84722,0.361111,7.40278,1.125,10.6667c0.777778,3.41667,2.13889,6.44444,4.13889,8.95833c2.02778,2.58333,4.79167,4.61111,8.26389,6.05556c3.34722,1.36111,7.70833,2.02778,12.9167,2.02778l12.4444,0c4.05556,0,7.48611,-0.75,10.1528,-2.30556c2.13889,-1.23611,4.73611,-3.90278,4.73611,-9.625c0,-4.69444,-1.58333,-8.02778,-4.73611,-9.84722c-2.66667,-1.51389,-6.09722,-2.33333,-10.1528,-2.33333l-11.4028,0c-1.91667,0,-2.63889,-0.263889,-2.875,-0.333333c-0.194444,-0.472222,-0.486111,-1.43056,-0.486111,-3.20833L-490.959,180.972l20.3472,0c4.09722,0,7.51389,-0.791667,10.1944,-2.33333c2.11111,-1.25,4.72222,-3.88889,4.72222,-9.61111C-455.75,164.306,-457.32,160.986,-460.473,159.194z" fill="#8C8C8C" />
    <path d="M-577.903,156.833l-16.5417,0c-4.05556,0,-7.47222,0.819444,-10.1528,2.34722c-3.13889,1.79167,-4.73611,5.11111,-4.73611,9.83333c0,5.72222,2.61111,8.38889,4.73611,9.59722c2.68056,1.56944,6.09722,2.33333,10.1528,2.33333l7.55556,0l0,74.4722c0,4.06944,0.791667,7.48611,2.31944,10.1389c1.81944,3.15278,5.09722,4.73611,9.83333,4.73611c5.70833,0,8.38889,-2.59722,9.61111,-4.73611c1.54167,-2.65278,2.33333,-6.08333,2.33333,-10.1389L-562.792,171.944c0,-5.36111,-1.16667,-9.11111,-3.55556,-11.5278C-568.778,158.028,-572.528,156.833,-577.903,156.833z" fill="#8C8C8C" />
    <path d="M-631.167,159.194c-2.68056,-1.54167,-6.11111,-2.34722,-10.1667,-2.34722l-8.38889,0c-3.47222,0,-6.91667,0.875,-10.1944,2.59722c-3.13889,1.65278,-6.01389,3.76389,-8.55556,6.29167l-8.94444,8.38889l0,-3.43056c0,-4.04167,-0.763889,-7.47222,-2.33333,-10.125c-1.77778,-3.16667,-5.11111,-4.72222,-9.81944,-4.72222c-5.69444,0,-8.38889,2.55556,-9.625,4.72222c-1.52778,2.65278,-2.31944,6.08333,-2.31944,10.125l0,66.6806c-6.59722,4.06944,-10.9861,11.3333,-10.9861,19.6111c0,12.7361,10.3472,23.0694,23.0278,23.0694c12.7222,0,23.0556,-10.3333,23.0556,-23.0694c0,-8.27778,-4.40278,-15.5417,-11,-19.6111l0,-30.6944l24.1389,-21.7222c1.38889,-1.25,2.76389,-2.27778,4.125,-3.01389c1.16667,-0.625,2.41667,-0.930556,3.80556,-0.930556l4,0c4.05556,0,7.48611,-0.777778,10.1667,-2.34722c2.15278,-1.22222,4.70833,-3.875,4.70833,-9.59722C-626.445,164.306,-628.042,160.986,-631.167,159.194zM-689.486,265.347c-4.61111,0,-8.375,-3.76389,-8.375,-8.38889c0,-4.625,3.76389,-8.38889,8.375,-8.38889c4.625,0,8.38889,3.76389,8.38889,8.38889C-681.098,261.611,-684.861,265.347,-689.486,265.347z" fill="#8C8C8C" />
    <path d="M-724.445,110.319c-2.68056,-1.54167,-6.11111,-2.31944,-10.1528,-2.31944l-8.19444,0c-2.77778,0,-5.40278,0.0555556,-7.80556,0.222222c-2.44444,0.125,-4.79167,0.486111,-7.02778,0.972222c-2.33333,0.569444,-4.66667,1.51389,-6.88889,2.80556c-2.19444,1.29167,-4.43056,3.08333,-6.66667,5.30556c-4.63889,4.36111,-7.69444,9.11111,-9.05556,14.125c-1.30556,4.83333,-1.98611,10.2083,-1.98611,15.9861l0,9.41667l-6.70833,0c-4.05556,0,-7.48611,0.819444,-10.1389,2.34722c-3.15278,1.80556,-4.75,5.125,-4.75,9.83333c0,5.72222,2.56944,8.38889,4.73611,9.625c2.65278,1.54167,6.08333,2.30556,10.1389,2.30556l6.70833,0l0,74.4722c0,4.06944,0.791667,7.48611,2.31944,10.1389c1.80556,3.15278,5.09722,4.73611,9.83333,4.73611c5.70833,0,8.375,-2.59722,9.61111,-4.73611c1.54167,-2.65278,2.33333,-6.08333,2.33333,-10.1389l0,-74.4444l12.7778,0c4.06944,0,7.5,-0.791667,10.1667,-2.33333c2.15278,-1.25,4.72222,-3.88889,4.72222,-9.61111c0,-4.72222,-1.58333,-8.04167,-4.72222,-9.83333c-2.625,-1.54167,-6.05556,-2.36111,-10.125,-2.36111l-12.7778,0l0,-9.41667c0,-3.02778,0.263889,-5.69444,0.777778,-7.93056c0.444444,-1.95833,1.43056,-3.625,3.02778,-5.09722l0.0277778,-0.0555556l0.0277778,-0.0277778c1.13889,-1.13889,2.44444,-1.75,4.02778,-1.88889c2.08333,-0.208333,4.70833,-0.305556,7.83333,-0.305556l7.77778,0c4.04167,0,7.48611,-0.805556,10.1528,-2.33333c2.13889,-1.22222,4.70833,-3.90278,4.70833,-9.625C-719.723,115.444,-721.32,112.125,-724.445,110.319z" fill="#8C8C8C" />
    <path d="M-2.31667,160.556c-1.23611,-2.16667,-3.91667,-4.72222,-9.625,-4.72222c-4.70833,0,-8.02778,1.56944,-9.81944,4.72222c-1.08333,1.84722,-1.76389,4.06944,-2.11111,6.625l-0.291667,-0.291667c-3,-3.27778,-6.47222,-5.83333,-10.375,-7.48611c-3.84722,-1.65278,-7.81944,-2.54167,-11.7917,-2.54167l-9.84722,0c-3.45833,0,-6.47222,0.208333,-8.88889,0.569444c-2.52778,0.361111,-4.88889,1.02778,-7.08333,1.94444c-2.19444,0.916667,-4.34722,2.08333,-6.375,3.52778c-1.93056,1.34722,-4.20833,3.13889,-6.75,5.23611c-2.61111,2.16667,-4.75,4.19444,-6.43056,6.02778c-1.76389,1.95833,-3.19444,4.06944,-4.25,6.31944c-0.958333,2.22222,-1.69444,4.68056,-2.04167,7.26389c-0.361111,2.47222,-0.569444,5.43056,-0.569444,8.76389l0,33.1389c0,3.33333,0.208333,6.26389,0.569444,8.76389c0.347222,2.61111,1.08333,5.01389,2.04167,7.23611c1.02778,2.27778,2.48611,4.41667,4.25,6.34722c1.65278,1.79167,3.80556,3.80556,6.43056,6.01389c2.58333,2.125,4.86111,3.88889,6.75,5.26389c2.02778,1.43056,4.15278,2.61111,6.375,3.52778c2.19444,0.902778,4.56944,1.55556,7.08333,1.94444c2.41667,0.361111,5.40278,0.541667,8.88889,0.541667l9.84722,0c4.13889,0,8.20833,-0.916667,12.0833,-2.76389c3.38889,-1.58333,6.83333,-4.04167,10.1389,-7.26389l0,19.9167c0,2.5,-0.347222,4.63889,-1,6.45833c-0.597222,1.65278,-2.20833,3.58333,-4.77778,5.63889c-2.13889,1.76389,-4.29167,3.01389,-6.34722,3.66667c-2.08333,0.680556,-4.73611,1.02778,-7.81944,1.02778l-30.5972,0c-4.06944,0,-7.47222,0.763889,-10.1667,2.30556c-2.11111,1.22222,-4.72222,3.91667,-4.72222,9.61111c0,4.73611,1.59722,8.04167,4.72222,9.86111c2.69444,1.51389,6.09722,2.31944,10.1667,2.31944l32.3056,0c3.43056,0,6.43056,-0.208333,8.86111,-0.569444c2.48611,-0.361111,4.875,-1.01389,7.125,-1.94444c2.125,-0.888889,4.30556,-2.08333,6.31944,-3.52778c1.98611,-1.40278,4.23611,-3.15278,6.76389,-5.26389c2.56944,-2.125,4.76389,-4.15278,6.43056,-5.98611c1.77778,-1.95833,3.18056,-4.08333,4.22222,-6.33333c0.986111,-2.25,1.70833,-4.69444,2.05556,-7.26389c0.347222,-2.52778,0.569444,-5.45833,0.569444,-8.76389l0,-109.694C0.00333333,166.639,-0.746667,163.208,-2.31667,160.556zM-24.1067,222.5c0,2.61111,-0.861111,4.86111,-2.61111,6.80556c-2.08333,2.38889,-5.47222,5.59722,-9.94444,9.52778l-0.0277778,0.0416667l-0.0277778,0.0555556c-1.93056,1.80556,-4.04167,3.29167,-6.29167,4.51389c-2.05556,1.13889,-4.51389,1.68056,-7.30556,1.68056L-54.4997,245.125c-3.08333,0,-5.69444,-0.291667,-7.81944,-1c-2.05556,-0.680556,-4.18056,-1.90278,-6.29167,-3.66667c-3.20833,-2.58333,-4.375,-4.47222,-4.80556,-5.61111c-0.680556,-1.81944,-1,-3.95833,-1,-6.45833l0,-30.6389c0,-2.5,0.319444,-4.66667,1,-6.48611c0.402778,-1.13889,1.56944,-3.01389,4.80556,-5.59722c2.11111,-1.76389,4.23611,-3,6.29167,-3.68056c2.125,-0.680556,4.75,-1,7.81944,-1l4.18056,0c2.94444,0,5.38889,0.513889,7.30556,1.56944c2.11111,1.13889,4.27778,2.65278,6.34722,4.5c4.47222,4.06944,7.83333,7.34722,9.94444,9.72222c1.77778,2.02778,2.61111,4.22222,2.61111,6.83333L-24.1067,222.5z" fill="#8C8C8C" />
    <path d="M-279.806,94.4444c-12.6944,0,-23.0556,10.3472,-23.0556,23.0556c0,12.7222,10.3611,23.0556,23.0556,23.0556s23.0556,-10.3333,23.0556,-23.0556C-256.75,104.792,-267.111,94.4444,-279.806,94.4444zM-279.806,125.875c-4.61111,0,-8.38889,-3.75,-8.38889,-8.375s3.76389,-8.375,8.38889,-8.375s8.38889,3.75,8.38889,8.375C-271.417,122.125,-275.195,125.875,-279.806,125.875z" fill="#8C8C8C" />
    <path d="M-131.389,237.056l-1.48611,-47.4861c-0.152778,-2.47222,-0.291667,-4.69444,-0.430556,-6.79167c-0.138889,-2.25,-0.513889,-4.47222,-1.13889,-6.61111c-0.625,-2.19444,-1.52778,-4.29167,-2.75,-6.29167c-1.29167,-2.02778,-3,-4.01389,-5.13889,-5.83333c-3.125,-2.66667,-6.15278,-4.63889,-8.97222,-5.77778c-2.875,-1.16667,-6.40278,-1.76389,-10.4722,-1.76389l-14.0556,0c-3.59722,0,-6.95833,0.805556,-9.94444,2.27778c-2.73611,1.36111,-5.41667,2.81944,-7.94444,4.375l-0.0416667,0.0277778l-0.0416667,0.0416667l-11.625,7.70833l0,-0.569444c0,-4.04167,-0.791667,-7.48611,-2.33333,-10.1806c-1.79167,-3.13889,-5.09722,-4.70833,-9.81944,-4.70833c-5.70833,0,-8.38889,2.56944,-9.625,4.70833c-1.51389,2.69444,-2.33333,6.08333,-2.33333,10.1806l0,84.7083c0,4.09722,0.819444,7.48611,2.33333,10.1944c1.25,2.125,3.91667,4.69444,9.625,4.69444c4.72222,0,8.02778,-1.58333,9.81944,-4.69444c1.54167,-2.70833,2.33333,-6.09722,2.33333,-10.1944L-205.431,199.028l27.125,-16.875c0.555556,-0.333333,1.13889,-0.666667,1.68056,-0.875c0.430556,-0.222222,0.972222,-0.347222,1.59722,-0.430556c0.680556,-0.166667,1.625,-0.222222,2.70833,-0.222222l5.02778,0c2.61111,0,4.63889,0.291667,6.04167,0.819444c1.13889,0.402778,1.98611,1.05556,2.5,1.98611c0.694444,1.08333,1.11111,2.5,1.36111,4.20833c0.277778,1.93056,0.472222,4.29167,0.625,7l1.33333,43.0139c-6.34722,4.125,-10.5833,11.2639,-10.5833,19.3611c0,12.7361,10.3611,23.0694,23.0556,23.0694c12.7222,0,23.0556,-10.3333,23.0556,-23.0694C-119.917,248.514,-124.542,241.042,-131.389,237.056zM-142.973,265.347c-4.63889,0,-8.36111,-3.76389,-8.36111,-8.38889c0,-4.625,3.72222,-8.38889,8.36111,-8.38889c4.625,0,8.38889,3.76389,8.38889,8.38889C-134.57,261.611,-138.348,265.347,-142.973,265.347z" fill="#8C8C8C" />
    <path d="M-278.931,156.833l-16.5694,0c-4.06944,0,-7.48611,0.819444,-10.1528,2.34722c-3.13889,1.79167,-4.73611,5.11111,-4.73611,9.83333c0,5.72222,2.58333,8.38889,4.73611,9.59722c2.66667,1.56944,6.08333,2.33333,10.1528,2.33333l7.56944,0l0,74.4722c0,4.06944,0.763889,7.48611,2.33333,10.1389c1.76389,3.15278,5.06944,4.73611,9.81944,4.73611c5.69444,0,8.38889,-2.59722,9.59722,-4.73611c1.54167,-2.65278,2.36111,-6.08333,2.36111,-10.1389L-263.82,171.944c0,-5.36111,-1.18056,-9.11111,-3.59722,-11.5278C-269.806,158.028,-273.598,156.833,-278.931,156.833z" fill="#8C8C8C" />
   </g>
  </g>
 </g>
</svg>
