<?xml version='1.0' encoding='UTF-8' standalone='no'?>
<!-- Created with Fritzing (https://fritzing.org/) -->
<svg xmlns="http://www.w3.org/2000/svg" baseProfile="tiny" height="3.95935in" version="1.2" viewBox="0 0 4634.44 3959.35" width="4.63444in" x="0in"  xmlns:svg="http://www.w3.org/2000/svg" y="0in">
 <g id="watermark" >
  <g >
   <g >
    <path d="M4290.94,3873.24c-8.38889,0,-15.7083,4.51389,-19.75,11.2361l-38.8333,0l55,-56.5417c2.02778,-2.02778,4.01389,-4.47222,5.94444,-7.23611c2.06944,-3.08333,3.16667,-6.65278,3.16667,-10.6667c0,-3.875,-1.34722,-7.19444,-3.98611,-9.86111c-2.63889,-2.61111,-6.16667,-3.98611,-10.4722,-3.98611l-64.3889,0c-4.23611,0,-7.70833,0.833333,-10.3056,2.36111c-3.04167,1.80556,-4.58333,5.11111,-4.58333,9.81944c0,4.56944,1.54167,7.80556,4.58333,9.61111c2.61111,1.54167,6.08333,2.33333,10.3056,2.33333l43.7222,0l-55.1944,56.75c-2.02778,2.04167,-4.01389,4.375,-5.90278,7c-2.125,2.94444,-3.19444,6.55556,-3.19444,10.7083c0,3.88889,1.33333,7.23611,4,9.875c2.61111,2.61111,6.13889,3.95833,10.4722,3.95833l59.9306,0c4.06944,6.48611,11.2778,10.7778,19.4444,10.7778c12.7222,0,23.0556,-10.3333,23.0556,-23.0694C4313.98,3883.58,4303.63,3873.24,4290.94,3873.24zM4290.94,3904.67c-4.63889,0,-8.38889,-3.76389,-8.38889,-8.38889c0,-4.625,3.75,-8.38889,8.38889,-8.38889c4.61111,0,8.38889,3.76389,8.38889,8.38889C4299.32,3900.93,4295.55,3904.67,4290.94,3904.67z" fill="#8C8C8C" />
    <path d="M4055.62,3733.76c-12.6944,0,-23.0417,10.3472,-23.0417,23.0556c0,12.7222,10.3472,23.0556,23.0417,23.0556s23.0278,-10.3333,23.0278,-23.0556C4078.68,3744.11,4068.34,3733.76,4055.62,3733.76zM4055.63,3765.2c-4.625,0,-8.38889,-3.75,-8.38889,-8.375s3.76389,-8.375,8.38889,-8.375c4.59722,0,8.38889,3.75,8.38889,8.375S4060.23,3765.2,4055.63,3765.2z" fill="#8C8C8C" />
    <path d="M4173.97,3798.51c-2.68056,-1.54167,-6.09722,-2.34722,-10.1667,-2.34722l-20.3472,0L4143.45,3761.14c0,-4.05556,-0.791667,-7.47222,-2.30556,-10.125C4139.9,3748.83,4137.22,3746.26,4131.52,3746.26c-4.72222,0,-8.02778,1.61111,-9.84722,4.75c-1.51389,2.68056,-2.31944,6.08333,-2.31944,10.125l0,35.0139l-6.68056,0c-4.09722,0,-7.48611,0.833333,-10.1528,2.34722c-3.16667,1.79167,-4.73611,5.11111,-4.73611,9.83333c0,5.72222,2.56944,8.375,4.73611,9.61111c2.66667,1.54167,6.08333,2.33333,10.1528,2.33333l6.68056,0l0,60.5833c0,3.84722,0.361111,7.40278,1.125,10.6667c0.777778,3.41667,2.13889,6.44444,4.13889,8.95833c2.02778,2.58333,4.79167,4.61111,8.26389,6.05556c3.34722,1.36111,7.70833,2.02778,12.9167,2.02778l12.4444,0c4.05556,0,7.48611,-0.75,10.1528,-2.30556c2.13889,-1.23611,4.73611,-3.90278,4.73611,-9.625c0,-4.69444,-1.58333,-8.02778,-4.73611,-9.84722c-2.66667,-1.51389,-6.09722,-2.33333,-10.1528,-2.33333l-11.4028,0c-1.91667,0,-2.63889,-0.263889,-2.875,-0.333333c-0.194444,-0.472222,-0.486111,-1.43056,-0.486111,-3.20833L4143.48,3820.29l20.3472,0c4.09722,0,7.51389,-0.791667,10.1944,-2.33333c2.11111,-1.25,4.72222,-3.88889,4.72222,-9.61111C4178.69,3803.63,4177.12,3800.31,4173.97,3798.51z" fill="#8C8C8C" />
    <path d="M4056.54,3796.15l-16.5417,0c-4.05556,0,-7.47222,0.819444,-10.1528,2.34722c-3.13889,1.79167,-4.73611,5.11111,-4.73611,9.83333c0,5.72222,2.61111,8.38889,4.73611,9.59722c2.68056,1.56944,6.09722,2.33333,10.1528,2.33333l7.55556,0l0,74.4722c0,4.06944,0.791667,7.48611,2.31944,10.1389c1.81944,3.15278,5.09722,4.73611,9.83333,4.73611c5.70833,0,8.38889,-2.59722,9.61111,-4.73611c1.54167,-2.65278,2.33333,-6.08333,2.33333,-10.1389L4071.65,3811.26c0,-5.36111,-1.16667,-9.11111,-3.55556,-11.5278C4065.66,3797.35,4061.91,3796.15,4056.54,3796.15z" fill="#8C8C8C" />
    <path d="M4003.27,3798.51c-2.68056,-1.54167,-6.11111,-2.34722,-10.1667,-2.34722l-8.38889,0c-3.47222,0,-6.91667,0.875,-10.1944,2.59722c-3.13889,1.65278,-6.01389,3.76389,-8.55556,6.29167l-8.94444,8.38889l0,-3.43056c0,-4.04167,-0.763889,-7.47222,-2.33333,-10.125c-1.77778,-3.16667,-5.11111,-4.72222,-9.81944,-4.72222c-5.69444,0,-8.38889,2.55556,-9.625,4.72222c-1.52778,2.65278,-2.31944,6.08333,-2.31944,10.125l0,66.6806c-6.59722,4.06944,-10.9861,11.3333,-10.9861,19.6111c0,12.7361,10.3472,23.0694,23.0278,23.0694c12.7222,0,23.0556,-10.3333,23.0556,-23.0694c0,-8.27778,-4.40278,-15.5417,-11,-19.6111l0,-30.6944l24.1389,-21.7222c1.38889,-1.25,2.76389,-2.27778,4.125,-3.01389c1.16667,-0.625,2.41667,-0.930556,3.80556,-0.930556l4,0c4.05556,0,7.48611,-0.777778,10.1667,-2.34722c2.15278,-1.22222,4.70833,-3.875,4.70833,-9.59722C4008,3803.63,4006.4,3800.31,4003.27,3798.51zM3944.95,3904.67c-4.61111,0,-8.375,-3.76389,-8.375,-8.38889c0,-4.625,3.76389,-8.38889,8.375,-8.38889c4.625,0,8.38889,3.76389,8.38889,8.38889C3953.34,3900.93,3949.58,3904.67,3944.95,3904.67z" fill="#8C8C8C" />
    <path d="M3910,3749.64c-2.68056,-1.54167,-6.11111,-2.31944,-10.1528,-2.31944l-8.19444,0c-2.77778,0,-5.40278,0.0555556,-7.80556,0.222222c-2.44444,0.125,-4.79167,0.486111,-7.02778,0.972222c-2.33333,0.569444,-4.66667,1.51389,-6.88889,2.80556c-2.19444,1.29167,-4.43056,3.08333,-6.66667,5.30556c-4.63889,4.36111,-7.69444,9.11111,-9.05556,14.125c-1.30556,4.83333,-1.98611,10.2083,-1.98611,15.9861l0,9.41667l-6.70833,0c-4.05556,0,-7.48611,0.819444,-10.1389,2.34722c-3.15278,1.80556,-4.75,5.125,-4.75,9.83333c0,5.72222,2.56944,8.38889,4.73611,9.625c2.65278,1.54167,6.08333,2.30556,10.1389,2.30556l6.70833,0l0,74.4722c0,4.06944,0.791667,7.48611,2.31944,10.1389c1.80556,3.15278,5.09722,4.73611,9.83333,4.73611c5.70833,0,8.375,-2.59722,9.61111,-4.73611c1.54167,-2.65278,2.33333,-6.08333,2.33333,-10.1389l0,-74.4444l12.7778,0c4.06944,0,7.5,-0.791667,10.1667,-2.33333c2.15278,-1.25,4.72222,-3.88889,4.72222,-9.61111c0,-4.72222,-1.58333,-8.04167,-4.72222,-9.83333c-2.625,-1.54167,-6.05556,-2.36111,-10.125,-2.36111l-12.7778,0l0,-9.41667c0,-3.02778,0.263889,-5.69444,0.777778,-7.93056c0.444444,-1.95833,1.43056,-3.625,3.02778,-5.09722l0.0277778,-0.0555556l0.0277778,-0.0277778c1.13889,-1.13889,2.44444,-1.75,4.02778,-1.88889c2.08333,-0.208333,4.70833,-0.305556,7.83333,-0.305556l7.77778,0c4.04167,0,7.48611,-0.805556,10.1528,-2.33333c2.13889,-1.22222,4.70833,-3.90278,4.70833,-9.625C3914.72,3754.76,3913.12,3751.45,3910,3749.64z" fill="#8C8C8C" />
    <path d="M4632.12,3799.88c-1.23611,-2.16667,-3.91667,-4.72222,-9.625,-4.72222c-4.70833,0,-8.02778,1.56944,-9.81944,4.72222c-1.08333,1.84722,-1.76389,4.06944,-2.11111,6.625l-0.291667,-0.291667c-3,-3.27778,-6.47222,-5.83333,-10.375,-7.48611c-3.84722,-1.65278,-7.81944,-2.54167,-11.7917,-2.54167l-9.84722,0c-3.45833,0,-6.47222,0.208333,-8.88889,0.569444c-2.52778,0.361111,-4.88889,1.02778,-7.08333,1.94444c-2.19444,0.916667,-4.34722,2.08333,-6.375,3.52778c-1.93056,1.34722,-4.20833,3.13889,-6.75,5.23611c-2.61111,2.16667,-4.75,4.19444,-6.43056,6.02778c-1.76389,1.95833,-3.19444,4.06944,-4.25,6.31944c-0.958333,2.22222,-1.69444,4.68056,-2.04167,7.26389c-0.361111,2.47222,-0.569444,5.43056,-0.569444,8.76389l0,33.1389c0,3.33333,0.208333,6.26389,0.569444,8.76389c0.347222,2.61111,1.08333,5.01389,2.04167,7.23611c1.02778,2.27778,2.48611,4.41667,4.25,6.34722c1.65278,1.79167,3.80556,3.80556,6.43056,6.01389c2.58333,2.125,4.86111,3.88889,6.75,5.26389c2.02778,1.43056,4.15278,2.61111,6.375,3.52778c2.19444,0.902778,4.56944,1.55556,7.08333,1.94444c2.41667,0.361111,5.40278,0.541667,8.88889,0.541667l9.84722,0c4.13889,0,8.20833,-0.916667,12.0833,-2.76389c3.38889,-1.58333,6.83333,-4.04167,10.1389,-7.26389l0,19.9167c0,2.5,-0.347222,4.63889,-1,6.45833c-0.597222,1.65278,-2.20833,3.58333,-4.77778,5.63889c-2.13889,1.76389,-4.29167,3.01389,-6.34722,3.66667c-2.08333,0.680556,-4.73611,1.02778,-7.81944,1.02778l-30.5972,0c-4.06944,0,-7.47222,0.763889,-10.1667,2.30556c-2.11111,1.22222,-4.72222,3.91667,-4.72222,9.61111c0,4.73611,1.59722,8.04167,4.72222,9.86111c2.69444,1.51389,6.09722,2.31944,10.1667,2.31944l32.3056,0c3.43056,0,6.43056,-0.208333,8.86111,-0.569444c2.48611,-0.361111,4.875,-1.01389,7.125,-1.94444c2.125,-0.888889,4.30556,-2.08333,6.31944,-3.52778c1.98611,-1.40278,4.23611,-3.15278,6.76389,-5.26389c2.56944,-2.125,4.76389,-4.15278,6.43056,-5.98611c1.77778,-1.95833,3.18056,-4.08333,4.22222,-6.33333c0.986111,-2.25,1.70833,-4.69444,2.05556,-7.26389c0.347222,-2.52778,0.569444,-5.45833,0.569444,-8.76389l0,-109.694C4634.44,3805.96,4633.69,3802.53,4632.12,3799.88zM4610.33,3861.82c0,2.61111,-0.861111,4.86111,-2.61111,6.80556c-2.08333,2.38889,-5.47222,5.59722,-9.94444,9.52778l-0.0277778,0.0416667l-0.0277778,0.0555556c-1.93056,1.80556,-4.04167,3.29167,-6.29167,4.51389c-2.05556,1.13889,-4.51389,1.68056,-7.30556,1.68056L4579.94,3884.45c-3.08333,0,-5.69444,-0.291667,-7.81944,-1c-2.05556,-0.680556,-4.18056,-1.90278,-6.29167,-3.66667c-3.20833,-2.58333,-4.375,-4.47222,-4.80556,-5.61111c-0.680556,-1.81944,-1,-3.95833,-1,-6.45833l0,-30.6389c0,-2.5,0.319444,-4.66667,1,-6.48611c0.402778,-1.13889,1.56944,-3.01389,4.80556,-5.59722c2.11111,-1.76389,4.23611,-3,6.29167,-3.68056c2.125,-0.680556,4.75,-1,7.81944,-1l4.18056,0c2.94444,0,5.38889,0.513889,7.30556,1.56944c2.11111,1.13889,4.27778,2.65278,6.34722,4.5c4.47222,4.06944,7.83333,7.34722,9.94444,9.72222c1.77778,2.02778,2.61111,4.22222,2.61111,6.83333L4610.33,3861.82z" fill="#8C8C8C" />
    <path d="M4354.63,3733.76c-12.6944,0,-23.0556,10.3472,-23.0556,23.0556c0,12.7222,10.3611,23.0556,23.0556,23.0556s23.0556,-10.3333,23.0556,-23.0556C4377.69,3744.11,4367.33,3733.76,4354.63,3733.76zM4354.63,3765.2c-4.61111,0,-8.38889,-3.75,-8.38889,-8.375s3.76389,-8.375,8.38889,-8.375s8.38889,3.75,8.38889,8.375C4363.02,3761.45,4359.25,3765.2,4354.63,3765.2z" fill="#8C8C8C" />
    <path d="M4503.05,3876.38l-1.48611,-47.4861c-0.152778,-2.47222,-0.291667,-4.69444,-0.430556,-6.79167c-0.138889,-2.25,-0.513889,-4.47222,-1.13889,-6.61111c-0.625,-2.19444,-1.52778,-4.29167,-2.75,-6.29167c-1.29167,-2.02778,-3,-4.01389,-5.13889,-5.83333c-3.125,-2.66667,-6.15278,-4.63889,-8.97222,-5.77778c-2.875,-1.16667,-6.40278,-1.76389,-10.4722,-1.76389l-14.0556,0c-3.59722,0,-6.95833,0.805556,-9.94444,2.27778c-2.73611,1.36111,-5.41667,2.81944,-7.94444,4.375l-0.0416667,0.0277778l-0.0416667,0.0416667l-11.625,7.70833l0,-0.569444c0,-4.04167,-0.791667,-7.48611,-2.33333,-10.1806c-1.79167,-3.13889,-5.09722,-4.70833,-9.81944,-4.70833c-5.70833,0,-8.38889,2.56944,-9.625,4.70833c-1.51389,2.69444,-2.33333,6.08333,-2.33333,10.1806l0,84.7083c0,4.09722,0.819444,7.48611,2.33333,10.1944c1.25,2.125,3.91667,4.69444,9.625,4.69444c4.72222,0,8.02778,-1.58333,9.81944,-4.69444c1.54167,-2.70833,2.33333,-6.09722,2.33333,-10.1944L4429.01,3838.35l27.125,-16.875c0.555556,-0.333333,1.13889,-0.666667,1.68056,-0.875c0.430556,-0.222222,0.972222,-0.347222,1.59722,-0.430556c0.680556,-0.166667,1.625,-0.222222,2.70833,-0.222222l5.02778,0c2.61111,0,4.63889,0.291667,6.04167,0.819444c1.13889,0.402778,1.98611,1.05556,2.5,1.98611c0.694444,1.08333,1.11111,2.5,1.36111,4.20833c0.277778,1.93056,0.472222,4.29167,0.625,7l1.33333,43.0139c-6.34722,4.125,-10.5833,11.2639,-10.5833,19.3611c0,12.7361,10.3611,23.0694,23.0556,23.0694c12.7222,0,23.0556,-10.3333,23.0556,-23.0694C4514.52,3887.83,4509.9,3880.36,4503.05,3876.38zM4491.47,3904.67c-4.63889,0,-8.36111,-3.76389,-8.36111,-8.38889c0,-4.625,3.72222,-8.38889,8.36111,-8.38889c4.625,0,8.38889,3.76389,8.38889,8.38889C4499.87,3900.93,4496.09,3904.67,4491.47,3904.67z" fill="#8C8C8C" />
    <path d="M4355.51,3796.15l-16.5694,0c-4.06944,0,-7.48611,0.819444,-10.1528,2.34722c-3.13889,1.79167,-4.73611,5.11111,-4.73611,9.83333c0,5.72222,2.58333,8.38889,4.73611,9.59722c2.66667,1.56944,6.08333,2.33333,10.1528,2.33333l7.56944,0l0,74.4722c0,4.06944,0.763889,7.48611,2.33333,10.1389c1.76389,3.15278,5.06944,4.73611,9.81944,4.73611c5.69444,0,8.38889,-2.59722,9.59722,-4.73611c1.54167,-2.65278,2.36111,-6.08333,2.36111,-10.1389L4370.62,3811.26c0,-5.36111,-1.18056,-9.11111,-3.59722,-11.5278C4364.63,3797.35,4360.84,3796.15,4355.51,3796.15z" fill="#8C8C8C" />
   </g>
  </g>
 </g>
 <g partID="90000040">
  <g transform="translate(4444.44,3333.33)">
   <g id="schematic">
    <g>
     <path d="M187.5,207.861L137.5,207.861c-2.68056,0,-4.86111,-2.16667,-4.86111,-4.86111s2.16667,-4.86111,4.86111,-4.86111L187.5,198.139c2.68056,0,4.86111,2.16667,4.86111,4.86111S190.194,207.861,187.5,207.861z"/>
    </g>
    <g>
     <path d="M137.5,207.861L87.5,207.861c-2.68056,0,-4.86111,-2.16667,-4.86111,-4.86111s2.18056,-4.86111,4.86111,-4.86111l50,0c2.68056,0,4.86111,2.16667,4.86111,4.86111S140.181,207.861,137.5,207.861z"/>
    </g>
    <g>
     <polygon fill="#FFFFFF" points="137.5,203,87.5,103,137.5,103,187.5,103"/>
     <path d="M137.5,213.861L79.6389,98.1389l115.736,0L137.5,213.861zM95.3611,107.861L137.5,192.139l42.1389,-84.2778L95.3611,107.861z"/>
    </g>
    <g>
     <path d="M137.5,206.125c-1.72222,0,-3.125,-1.40278,-3.125,-3.125l0,-100c0,-1.72222,1.40278,-3.125,3.125,-3.125s3.125,1.40278,3.125,3.125l0,100C140.611,204.722,139.222,206.125,137.5,206.125z"/>
    </g>
    <g>
     <path d="M25,168.625c-0.805556,0,-1.59722,-0.291667,-2.20833,-0.902778c-1.22222,-1.22222,-1.22222,-3.19444,0,-4.41667l32.5,-32.5139c1.22222,-1.22222,3.19444,-1.22222,4.41667,0s1.22222,3.19444,0,4.41667l-32.5,32.5139C26.5972,168.333,25.8056,168.625,25,168.625z"/>
    </g>
    <g>
     <path d="M30,213.625c-0.805556,0,-1.59722,-0.291667,-2.20833,-0.902778c-1.22222,-1.22222,-1.22222,-3.19444,0,-4.41667l32.5,-32.5c1.22222,-1.22222,3.19444,-1.22222,4.41667,0s1.22222,3.19444,0,4.41667l-32.5,32.5C31.6111,213.319,30.8056,213.625,30,213.625z"/>
    </g>
    <g id="connector0pin">
     <path d="M137.5,307.861c-2.68056,0,-4.86111,-2.16667,-4.86111,-4.86111l0,-100c0,-2.68056,2.16667,-4.86111,4.86111,-4.86111s4.86111,2.16667,4.86111,4.86111l0,100C142.347,305.694,140.181,307.861,137.5,307.861z" fill="#787878"/>
    </g>
    <g id="connector0terminal">
     <rect fill="none" height="0.0138889" width="0.0138889" x="137.5" y="303"/>
    </g>
    <g transform="matrix(1, 0, 0, 1, 47.625, 89.2528)">
     <g>
      <g transform="rotate(270)">
       <g>
        <g enable-background="new    ">
         <path d="M-161.764,76.9444l-12.375,0L-174.139,74.8333l4.75,-5.16667c0.680556,-0.736111,1.29167,-1.40278,1.81944,-2.01389s0.986111,-1.19444,1.375,-1.77778c0.361111,-0.583333,0.652778,-1.16667,0.861111,-1.73611c0.208333,-0.597222,0.291667,-1.22222,0.291667,-1.91667c0,-0.527778,-0.0694444,-1,-0.236111,-1.41667s-0.375,-0.75,-0.652778,-1.04167c-0.291667,-0.277778,-0.625,-0.486111,-1.01389,-0.638889s-0.833333,-0.222222,-1.30556,-0.222222c-0.861111,0,-1.63889,0.180556,-2.31944,0.527778c-0.708333,0.333333,-1.36111,0.791667,-1.98611,1.33333l-1.38889,-1.61111c0.347222,-0.319444,0.763889,-0.638889,1.16667,-0.902778c0.402778,-0.291667,0.875,-0.541667,1.34722,-0.75s0.986111,-0.361111,1.51389,-0.5c0.527778,-0.111111,1.09722,-0.180556,1.68056,-0.180556c0.875,0,1.65278,0.125,2.34722,0.361111c0.708333,0.25,1.30556,0.597222,1.79167,1.05556c0.486111,0.444444,0.875,1,1.13889,1.65278c0.263889,0.666667,0.388889,1.40278,0.388889,2.22222c0,0.777778,-0.125,1.5,-0.361111,2.19444c-0.236111,0.694444,-0.569444,1.38889,-0.972222,2.05556c-0.430556,0.666667,-0.916667,1.34722,-1.51389,2.02778c-0.569444,0.680556,-1.20833,1.38889,-1.88889,2.11111L-171.111,74.5833l0,0.111111l9.34722,0L-161.764,76.9444z" fill="#787878"/>
        </g>
       </g>
      </g>
     </g>
    </g>
    <g id="connector1pin">
     <path d="M137.5,107.861c-2.68056,0,-4.86111,-2.18056,-4.86111,-4.86111l0,-100c0,-2.68056,2.16667,-4.86111,4.86111,-4.86111s4.86111,2.18056,4.86111,4.86111l0,100C142.347,105.681,140.181,107.861,137.5,107.861z" fill="#787878"/>
    </g>
    <g id="connector1terminal">
     <polygon fill="none" points="137.5,3,137.514,3,137.514,3"/>
    </g>
    <g transform="matrix(1, 0, 0, 1, 47.625, 18.6972)">
     <g>
      <g transform="rotate(270)">
       <g>
        <g enable-background="new    ">
         <path d="M-36.3333,76.9444l-2.38889,0L-38.7222,64.5556c0,-0.388889,0,-0.805556,0,-1.25s0.0138889,-0.875,0.0277778,-1.31944c0.0138889,-0.444444,0.0277778,-0.875,0.0416667,-1.27778c0.0138889,-0.388889,0.0277778,-0.75,0.0277778,-1.05556c-0.152778,0.166667,-0.291667,0.291667,-0.402778,0.416667s-0.236111,0.236111,-0.361111,0.333333s-0.25,0.222222,-0.388889,0.347222c-0.138889,0.111111,-0.291667,0.263889,-0.486111,0.416667l-2.01389,1.63889l-1.30556,-1.66667l5.19444,-4.05556l2.02778,0L-36.3611,76.9444z" fill="#787878"/>
        </g>
       </g>
      </g>
     </g>
    </g>
    <g>
     <path d="M2.5,188l15,-35.0139l20,19.9722L2.5,188z"/>
    </g>
    <g>
     <path d="M7.5,233l15,-35.0139l19.9722,19.9722L7.5,233z"/>
    </g>
   </g>
  </g>
 </g>
 <g partID="90000030">
  <g transform="translate(3333.33,3333.33)">
   <g id="schematic" >
    <line class="other" stroke="#000000" stroke-linecap="round" stroke-width="6.00002" x1="104.861" x2="119.861"  y1="43" y2="3"/>
    <line class="other" stroke="#000000" stroke-linecap="round" stroke-width="6.00002" x1="119.861" x2="144.862"  y1="3" y2="83"/>
    <line class="other" stroke="#000000" stroke-linecap="round" stroke-width="6.00002" x1="144.862" x2="169.862"  y1="83" y2="3"/>
    <line class="other" stroke="#000000" stroke-linecap="round" stroke-width="6.00002" x1="169.862" x2="194.862"  y1="3" y2="83"/>
    <line class="other" stroke="#000000" stroke-linecap="round" stroke-width="6.00002" x1="194.862" x2="219.862"  y1="83" y2="3"/>
    <line class="other" stroke="#000000" stroke-linecap="round" stroke-width="6.00002" x1="219.862" x2="244.862"  y1="3" y2="83"/>
    <line class="other" stroke="#000000" stroke-linecap="round" stroke-width="6.00002" x1="244.862" x2="269.862"  y1="83" y2="3"/>
    <line class="other" stroke="#000000" stroke-linecap="round" stroke-width="6.00002" x1="269.862" x2="294.862"  y1="3" y2="83"/>
    <line class="other" stroke="#000000" stroke-linecap="round" stroke-width="6.00002" x1="294.862" x2="304.862"  y1="83" y2="43"/>
    <line class="pin" connectorname="2" id="connector1pin" stroke="#787878" stroke-linecap="round" stroke-width="9.72224" x1="404.864" x2="304.862"  y1="43" y2="43"/>
    <g class="terminal" fill="none" height="0.00393701" id="connector1terminal" stroke="none" stroke-width="0" width="0.00393702" x="404.864"  y="43"/>
    <text class="text" fill="#8c8c8c" font-family="'Droid Sans'" font-size="34.7223" stroke="none" stroke-width="0" text-anchor="middle" x="354.862"  y="28.4167">2</text>
    <line class="pin" connectorname="1" id="connector0pin" stroke="#787878" stroke-linecap="round" stroke-width="9.72224" x1="4.86112" x2="104.861"  y1="43" y2="43"/>
    <g class="terminal" fill="none" height="0.00393701" id="connector0terminal" stroke="none" stroke-width="0" width="0.00393702" x="4.86112"  y="43"/>
    <text class="text" fill="#8c8c8c" font-family="'Droid Sans'" font-size="34.7223" stroke="none" stroke-width="0" text-anchor="middle" x="54.8612"  y="28.4167">1</text>
   </g>
  </g>
 </g>
 <g partID="90000020">
  <g id="schematic">
   <rect class="interior rect" fill="#FFFFFF" height="1887.5" stroke="#000000" stroke-linecap="round" stroke-width="12.5" width="1087.5" x="206.25" y="206.25"/>
   <line class="pin" fill="none" id="connector61pin" stroke="#787878" stroke-linecap="round" stroke-width="9.7222" x1="1295.14" x2="1495.14" y1="400" y2="400"/>
   <text class="text" fill="#8c8c8c" font-family="'Droid Sans'" font-size="48.611" stroke="none" stroke-width="0" text-anchor="end" x="1275.69" y="409.72">D0/RX</text>
   <g class="terminal" fill="none" height="9.7222" id="connector61terminal" stroke="none" stroke-width="0" width="9.7222" x="1495.14" y="395.138"/>
   <line class="pin" fill="none" id="connector62pin" stroke="#787878" stroke-linecap="round" stroke-width="9.7222" x1="1295.14" x2="1495.14" y1="500" y2="500"/>
   <text class="text" fill="#8c8c8c" font-family="'Droid Sans'" font-size="48.611" stroke="none" stroke-width="0" text-anchor="end" x="1275.69" y="509.72">D1/TX</text>
   <g class="terminal" fill="none" height="9.7222" id="connector62terminal" stroke="none" stroke-width="0" width="9.7222" x="1495.14" y="495.138"/>
   <line class="pin" fill="none" id="connector63pin" stroke="#787878" stroke-linecap="round" stroke-width="9.7222" x1="1295.14" x2="1495.14" y1="600" y2="600"/>
   <text class="text" fill="#8c8c8c" font-family="'Droid Sans'" font-size="48.611" stroke="none" stroke-width="0" text-anchor="end" x="1275.69" y="609.72">D2</text>
   <g class="terminal" fill="none" height="9.7222" id="connector63terminal" stroke="none" stroke-width="0" width="9.7222" x="1495.14" y="595.138"/>
   <line class="pin" fill="none" id="connector64pin" stroke="#787878" stroke-linecap="round" stroke-width="9.7222" x1="1295.14" x2="1495.14" y1="700" y2="700"/>
   <text class="text" fill="#8c8c8c" font-family="'Droid Sans'" font-size="48.611" stroke="none" stroke-width="0" text-anchor="end" x="1275.69" y="709.72">D3 PWM</text>
   <g class="terminal" fill="none" height="9.7222" id="connector64terminal" stroke="none" stroke-width="0" width="9.7222" x="1495.14" y="695.138"/>
   <line class="pin" fill="none" id="connector65pin" stroke="#787878" stroke-linecap="round" stroke-width="9.7222" x1="1295.14" x2="1495.14" y1="800" y2="800"/>
   <text class="text" fill="#8c8c8c" font-family="'Droid Sans'" font-size="48.611" stroke="none" stroke-width="0" text-anchor="end" x="1275.69" y="809.72">D4</text>
   <g class="terminal" fill="none" height="9.7222" id="connector65terminal" stroke="none" stroke-width="0" width="9.7222" x="1495.14" y="795.138"/>
   <line class="pin" fill="none" id="connector66pin" stroke="#787878" stroke-linecap="round" stroke-width="9.7222" x1="1295.14" x2="1495.14" y1="900" y2="900"/>
   <text class="text" fill="#8c8c8c" font-family="'Droid Sans'" font-size="48.611" stroke="none" stroke-width="0" text-anchor="end" x="1275.69" y="909.72">D5 PWM</text>
   <g class="terminal" fill="none" height="9.7222" id="connector66terminal" stroke="none" stroke-width="0" width="9.7222" x="1495.14" y="895.138"/>
   <line class="pin" fill="none" id="connector67pin" stroke="#787878" stroke-linecap="round" stroke-width="9.7222" x1="1295.14" x2="1495.14" y1="1000" y2="1000"/>
   <text class="text" fill="#8c8c8c" font-family="'Droid Sans'" font-size="48.611" stroke="none" stroke-width="0" text-anchor="end" x="1275.69" y="1009.72">D6 PWM</text>
   <g class="terminal" fill="none" height="9.7222" id="connector67terminal" stroke="none" stroke-width="0" width="9.7222" x="1495.14" y="995.138"/>
   <line class="pin" fill="none" id="connector68pin" stroke="#787878" stroke-linecap="round" stroke-width="9.7222" x1="1295.14" x2="1495.14" y1="1100" y2="1100"/>
   <text class="text" fill="#8c8c8c" font-family="'Droid Sans'" font-size="48.611" stroke="none" stroke-width="0" text-anchor="end" x="1275.69" y="1109.72">D7</text>
   <g class="terminal" fill="none" height="9.7222" id="connector68terminal" stroke="none" stroke-width="0" width="9.7222" x="1495.14" y="1095.14"/>
   <line class="pin" fill="none" id="connector51pin" stroke="#787878" stroke-linecap="round" stroke-width="9.7222" x1="1295.14" x2="1495.14" y1="1200" y2="1200"/>
   <text class="text" fill="#8c8c8c" font-family="'Droid Sans'" font-size="48.611" stroke="none" stroke-width="0" text-anchor="end" x="1275.69" y="1209.72">D8</text>
   <g class="terminal" fill="none" height="9.7222" id="connector51terminal" stroke="none" stroke-width="0" width="9.7222" x="1495.14" y="1195.14"/>
   <line class="pin" fill="none" id="connector52pin" stroke="#787878" stroke-linecap="round" stroke-width="9.7222" x1="1295.14" x2="1495.14" y1="1300" y2="1300"/>
   <text class="text" fill="#8c8c8c" font-family="'Droid Sans'" font-size="48.611" stroke="none" stroke-width="0" text-anchor="end" x="1275.69" y="1309.72">D9 PWM</text>
   <g class="terminal" fill="none" height="9.7222" id="connector52terminal" stroke="none" stroke-width="0" width="9.7222" x="1495.14" y="1295.14"/>
   <line class="pin" fill="none" id="connector53pin" stroke="#787878" stroke-linecap="round" stroke-width="9.7222" x1="1295.14" x2="1495.14" y1="1400" y2="1400"/>
   <text class="text" fill="#8c8c8c" font-family="'Droid Sans'" font-size="48.611" stroke="none" stroke-width="0" text-anchor="end" x="1275.69" y="1409.72">D10 PWM/SS</text>
   <g class="terminal" fill="none" height="9.7222" id="connector53terminal" stroke="none" stroke-width="0" width="9.7222" x="1495.14" y="1395.14"/>
   <line class="pin" fill="none" id="connector54pin" stroke="#787878" stroke-linecap="round" stroke-width="9.7222" x1="1295.14" x2="1495.14" y1="1500" y2="1500"/>
   <text class="text" fill="#8c8c8c" font-family="'Droid Sans'" font-size="48.611" stroke="none" stroke-width="0" text-anchor="end" x="1275.69" y="1509.72">D11 PWM/MOSI</text>
   <g class="terminal" fill="none" height="9.7222" id="connector54terminal" stroke="none" stroke-width="0" width="9.7222" x="1495.14" y="1495.14"/>
   <line class="pin" fill="none" id="connector55pin" stroke="#787878" stroke-linecap="round" stroke-width="9.7222" x1="1295.14" x2="1495.14" y1="1600" y2="1600"/>
   <text class="text" fill="#8c8c8c" font-family="'Droid Sans'" font-size="48.611" stroke="none" stroke-width="0" text-anchor="end" x="1275.69" y="1609.72">D12/MISO</text>
   <g class="terminal" fill="none" height="9.7222" id="connector55terminal" stroke="none" stroke-width="0" width="9.7222" x="1495.14" y="1595.14"/>
   <line class="pin" fill="none" id="connector41pin" stroke="none" stroke-linecap="round" stroke-width="0" x1="1295.14" x2="1495.14" y1="1700" y2="1700"/>
   <rect class="terminal" fill="none" height="9.7222" id="connector41terminal" stroke="none" stroke-width="0" width="9.7222" x="1495.14" y="1695.14"/>
   <line class="pin" fill="none" id="connector56pin" stroke="#787878" stroke-linecap="round" stroke-width="9.7222" x1="1295.14" x2="1495.14" y1="1700" y2="1700"/>
   <text class="text" fill="#8c8c8c" font-family="'Droid Sans'" font-size="48.611" stroke="none" stroke-width="0" text-anchor="end" x="1275.69" y="1709.72">D13/SCK</text>
   <g class="terminal" fill="none" height="9.7222" id="connector56terminal" stroke="none" stroke-width="0" width="9.7222" x="1495.14" y="1695.14"/>
   <line class="pin" fill="none" id="connector43pin" stroke="none" stroke-linecap="round" stroke-width="0" x1="4.8611" x2="204.861" y1="400" y2="400"/>
   <rect class="terminal" fill="none" height="9.7222" id="connector43terminal" stroke="none" stroke-width="0" width="9.7222" x="-4.8611" y="395.138"/>
   <line class="pin" fill="none" id="connector85pin" stroke="#787878" stroke-linecap="round" stroke-width="9.7222" x1="4.8611" x2="204.861" y1="400" y2="400"/>
   <text class="text" fill="#8c8c8c" font-family="'Droid Sans'" font-size="48.611" stroke="none" stroke-width="0" text-anchor="start" x="224.306" y="409.72">RESET</text>
   <g class="terminal" fill="none" height="9.7222" id="connector85terminal" stroke="none" stroke-width="0" width="9.7222" x="-4.8611" y="395.138"/>
   <line class="pin" fill="none" id="connector49pin" stroke="#787878" stroke-linecap="round" stroke-width="9.7222" x1="4.8611" x2="204.861" y1="500" y2="500"/>
   <text class="text" fill="#8c8c8c" font-family="'Droid Sans'" font-size="48.611" stroke="none" stroke-width="0" text-anchor="start" x="224.306" y="509.72">RESET2</text>
   <rect class="terminal" fill="none" height="9.7222" id="connector49terminal" stroke="none" stroke-width="0" width="9.7222" x="-4.8611" y="495.138"/>
   <line class="pin" fill="none" id="connector58pin" stroke="#787878" stroke-linecap="round" stroke-width="9.7222" x1="4.8611" x2="204.861" y1="600" y2="600"/>
   <text class="text" fill="#8c8c8c" font-family="'Droid Sans'" font-size="48.611" stroke="none" stroke-width="0" text-anchor="start" x="224.306" y="609.72">AREF</text>
   <g class="terminal" fill="none" height="9.7222" id="connector58terminal" stroke="none" stroke-width="0" width="9.7222" x="-4.8611" y="595.138"/>
   <line class="pin" fill="none" id="connector84pin" stroke="#787878" stroke-linecap="round" stroke-width="9.7222" x1="4.8611" x2="204.861" y1="700" y2="700"/>
   <text class="text" fill="#8c8c8c" font-family="'Droid Sans'" font-size="48.611" stroke="none" stroke-width="0" text-anchor="start" x="224.306" y="709.72">ioref</text>
   <g class="terminal" fill="none" height="9.7222" id="connector84terminal" stroke="none" stroke-width="0" width="9.7222" x="-4.8611" y="695.138"/>
   <line class="pin" fill="none" id="connector0pin" stroke="#787878" stroke-linecap="round" stroke-width="9.7222" x1="4.8611" x2="204.861" y1="900" y2="900"/>
   <text class="text" fill="#8c8c8c" font-family="'Droid Sans'" font-size="48.611" stroke="none" stroke-width="0" text-anchor="start" x="224.306" y="909.72">A0</text>
   <g class="terminal" fill="none" height="9.7222" id="connector0terminal" stroke="none" stroke-width="0" width="9.7222" x="-4.8611" y="895.138"/>
   <line class="pin" fill="none" id="connector1pin" stroke="#787878" stroke-linecap="round" stroke-width="9.7222" x1="4.8611" x2="204.861" y1="1000" y2="1000"/>
   <text class="text" fill="#8c8c8c" font-family="'Droid Sans'" font-size="48.611" stroke="none" stroke-width="0" text-anchor="start" x="224.306" y="1009.72">A1</text>
   <g class="terminal" fill="none" height="9.7222" id="connector1terminal" stroke="none" stroke-width="0" width="9.7222" x="-4.8611" y="995.138"/>
   <line class="pin" fill="none" id="connector2pin" stroke="#787878" stroke-linecap="round" stroke-width="9.7222" x1="4.8611" x2="204.861" y1="1100" y2="1100"/>
   <text class="text" fill="#8c8c8c" font-family="'Droid Sans'" font-size="48.611" stroke="none" stroke-width="0" text-anchor="start" x="224.306" y="1109.72">A2</text>
   <g class="terminal" fill="none" height="9.7222" id="connector2terminal" stroke="none" stroke-width="0" width="9.7222" x="-4.8611" y="1095.14"/>
   <line class="pin" fill="none" id="connector3pin" stroke="#787878" stroke-linecap="round" stroke-width="9.7222" x1="4.8611" x2="204.861" y1="1200" y2="1200"/>
   <text class="text" fill="#8c8c8c" font-family="'Droid Sans'" font-size="48.611" stroke="none" stroke-width="0" text-anchor="start" x="224.306" y="1209.72">A3</text>
   <g class="terminal" fill="none" height="9.7222" id="connector3terminal" stroke="none" stroke-width="0" width="9.7222" x="-4.8611" y="1195.14"/>
   <line class="pin" fill="none" id="connector48pin" stroke="none" stroke-linecap="round" stroke-width="0" x1="4.8611" x2="204.861" y1="1300" y2="1300"/>
   <rect class="terminal" fill="none" height="9.7222" id="connector48terminal" stroke="none" stroke-width="0" width="9.7222" x="-4.8611" y="1295.14"/>
   <line class="pin" fill="none" id="connector45pin" stroke="none" stroke-linecap="round" stroke-width="0" x1="4.8611" x2="204.861" y1="1300" y2="1300"/>
   <rect class="terminal" fill="none" height="9.7222" id="connector45terminal" stroke="none" stroke-width="0" width="9.7222" x="-4.8611" y="1295.14"/>
   <line class="pin" fill="none" id="connector4pin" stroke="none" stroke-linecap="round" stroke-width="0" x1="4.8611" x2="204.861" y1="1300" y2="1300"/>
   <g class="terminal" fill="none" height="9.7222" id="connector4terminal" stroke="none" stroke-width="0" width="9.7222" x="-4.8611" y="1295.14"/>
   <line class="pin" fill="none" id="connector39pin" stroke="none" stroke-linecap="round" stroke-width="0" x1="4.8611" x2="204.861" y1="1300" y2="1300"/>
   <rect class="terminal" fill="none" height="9.7222" id="connector39terminal" stroke="none" stroke-width="0" width="9.7222" x="-4.8611" y="1295.14"/>
   <line class="pin" fill="none" id="connector47pin" stroke="none" stroke-linecap="round" stroke-width="0" x1="4.8611" x2="204.861" y1="1300" y2="1300"/>
   <rect class="terminal" fill="none" height="9.7222" id="connector47terminal" stroke="none" stroke-width="0" width="9.7222" x="-4.8611" y="1295.14"/>
   <line class="pin" fill="none" id="connector42pin" stroke="none" stroke-linecap="round" stroke-width="0" x1="4.8611" x2="204.861" y1="1300" y2="1300"/>
   <rect class="terminal" fill="none" height="9.7222" id="connector42terminal" stroke="none" stroke-width="0" width="9.7222" x="-4.8611" y="1295.14"/>
   <line class="pin" fill="none" id="connector59pin" stroke="#787878" stroke-linecap="round" stroke-width="9.7222" x1="4.8611" x2="204.861" y1="1300" y2="1300"/>
   <text class="text" fill="#8c8c8c" font-family="'Droid Sans'" font-size="48.611" stroke="none" stroke-width="0" text-anchor="start" x="224.306" y="1309.72">A4/SDA</text>
   <g class="terminal" fill="none" height="9.7222" id="connector59terminal" stroke="none" stroke-width="0" width="9.7222" x="-4.8611" y="1295.14"/>
   <line class="pin" fill="none" id="connector5pin" stroke="none" stroke-linecap="round" stroke-width="0" x1="4.8611" x2="204.861" y1="1400" y2="1400"/>
   <g class="terminal" fill="none" height="9.7222" id="connector5terminal" stroke="none" stroke-width="0" width="9.7222" x="-4.8611" y="1395.14"/>
   <line class="pin" fill="none" id="connector60pin" stroke="#787878" stroke-linecap="round" stroke-width="9.7222" x1="4.8611" x2="204.861" y1="1400" y2="1400"/>
   <text class="text" fill="#8c8c8c" font-family="'Droid Sans'" font-size="48.611" stroke="none" stroke-width="0" text-anchor="start" x="224.306" y="1409.72">A5/SCL</text>
   <g class="terminal" fill="none" height="9.7222" id="connector60terminal" stroke="none" stroke-width="0" width="9.7222" x="-4.8611" y="1395.14"/>
   <line class="pin" fill="none" id="connector91pin" stroke="#787878" stroke-linecap="round" stroke-width="9.7222" x1="4.8611" x2="204.861" y1="1900" y2="1900"/>
   <text class="text" fill="#8c8c8c" font-family="'Droid Sans'" font-size="48.611" stroke="none" stroke-width="0" text-anchor="start" x="224.306" y="1909.72">N/C</text>
   <g class="terminal" fill="none" height="9.7222" id="connector91terminal" stroke="none" stroke-width="0" width="9.7222" x="-4.8611" y="1895.14"/>
   <line class="pin" fill="none" id="connector88pin" stroke="none" stroke-linecap="round" stroke-width="0" x1="800" x2="800" y1="2095.14" y2="2295.14"/>
   <g class="terminal" fill="none" height="9.7222" id="connector88terminal" stroke="none" stroke-width="0" width="9.7222" x="795.138" y="2295.14"/>
   <line class="pin" fill="none" id="connector57pin" stroke="none" stroke-linecap="round" stroke-width="0" x1="800" x2="800" y1="2095.14" y2="2295.14"/>
   <g class="terminal" fill="none" height="9.7222" id="connector57terminal" stroke="none" stroke-width="0" width="9.7222" x="795.138" y="2295.14"/>
   <line class="pin" fill="none" id="connector44pin" stroke="none" stroke-linecap="round" stroke-width="0" x1="800" x2="800" y1="2095.14" y2="2295.14"/>
   <rect class="terminal" fill="none" height="9.7222" id="connector44terminal" stroke="none" stroke-width="0" width="9.7222" x="795.138" y="2295.14"/>
   <line class="pin" fill="none" id="connector50pin" stroke="none" stroke-linecap="round" stroke-width="0" x1="800" x2="800" y1="2095.14" y2="2295.14"/>
   <rect class="terminal" fill="none" height="9.7222" id="connector50terminal" stroke="none" stroke-width="0" width="9.7222" x="795.138" y="2295.14"/>
   <line class="pin" fill="none" id="connector89pin" stroke="#787878" stroke-linecap="round" stroke-width="9.7222" x1="800" x2="800" y1="2095.14" y2="2295.14"/>
   <g transform="matrix(1, 0, 0, 1, 809.72, 2075.69)">
    <g>
     <g transform="rotate(270)">
      <g>
       <text class="text" fill="#8c8c8c" font-family="'Droid Sans'" font-size="48.611" stroke="none" stroke-width="0" text-anchor="start" x="0" y="0">GND</text>
      </g>
     </g>
    </g>
   </g>
   <g class="terminal" fill="none" height="9.7222" id="connector89terminal" stroke="none" stroke-width="0" width="9.7222" x="795.138" y="2295.14"/>
   <line class="pin" fill="none" id="connector86pin" stroke="#787878" stroke-linecap="round" stroke-width="9.7222" x1="500" x2="500" y1="4.8611" y2="204.861"/>
   <g transform="matrix(1, 0, 0, 1, 509.72, 224.306)">
    <g>
     <g transform="rotate(270)">
      <g>
       <text class="text" fill="#8c8c8c" font-family="'Droid Sans'" font-size="48.611" stroke="none" stroke-width="0" text-anchor="end" x="0" y="0">3V3</text>
      </g>
     </g>
    </g>
   </g>
   <g class="terminal" fill="none" height="9.7222" id="connector86terminal" stroke="none" stroke-width="0" width="9.7222" x="495.138" y="-4.8611"/>
   <line class="pin" fill="none" id="connector40pin" stroke="none" stroke-linecap="round" stroke-width="0" x1="700" x2="700" y1="4.8611" y2="204.861"/>
   <rect class="terminal" fill="none" height="9.7222" id="connector40terminal" stroke="none" stroke-width="0" width="9.7222" x="695.138" y="-4.8611"/>
   <line class="pin" fill="none" id="connector46pin" stroke="none" stroke-linecap="round" stroke-width="0" x1="700" x2="700" y1="4.8611" y2="204.861"/>
   <rect class="terminal" fill="none" height="9.7222" id="connector46terminal" stroke="none" stroke-width="0" width="9.7222" x="695.138" y="-4.8611"/>
   <line class="pin" fill="none" id="connector87pin" stroke="#787878" stroke-linecap="round" stroke-width="9.7222" x1="700" x2="700" y1="4.8611" y2="204.861"/>
   <g transform="matrix(1, 0, 0, 1, 709.72, 224.306)">
    <g>
     <g transform="rotate(270)">
      <g>
       <text class="text" fill="#8c8c8c" font-family="'Droid Sans'" font-size="48.611" stroke="none" stroke-width="0" text-anchor="end" x="0" y="0">5V</text>
      </g>
     </g>
    </g>
   </g>
   <g class="terminal" fill="none" height="9.7222" id="connector87terminal" stroke="none" stroke-width="0" width="9.7222" x="695.138" y="-4.8611"/>
   <line class="pin" fill="none" id="connector90pin" stroke="#787878" stroke-linecap="round" stroke-width="9.7222" x1="900" x2="900" y1="4.8611" y2="204.861"/>
   <g transform="matrix(1, 0, 0, 1, 909.72, 224.306)">
    <g>
     <g transform="rotate(270)">
      <g>
       <text class="text" fill="#8c8c8c" font-family="'Droid Sans'" font-size="48.611" stroke="none" stroke-width="0" text-anchor="end" x="0" y="0">VIN</text>
      </g>
     </g>
    </g>
   </g>
   <g class="terminal" fill="none" height="9.7222" id="connector90terminal" stroke="none" stroke-width="0" width="9.7222" x="895.138" y="-4.8611"/>
   <text class="text" fill="#000000" font-family="'Droid Sans'" font-size="59.028" id="label" stroke="none" stroke-width="0" text-anchor="middle" x="756.252" y="1061.8">Arduino</text>
   <text class="text" fill="#000000" font-family="'Droid Sans'" font-size="59.028" id="label" stroke="none" stroke-width="0" text-anchor="middle" x="756.252" y="1124.77">Uno</text>
   <text class="text" fill="#000000" font-family="'Droid Sans'" font-size="59.028" id="label" stroke="none" stroke-width="0" text-anchor="middle" x="756.252" y="1187.73">(Rev3)</text>
  </g>
 </g>
</svg>
