<?xml version='1.0' encoding='UTF-8' standalone='no'?>
<!-- Created with Fritzing (https://fritzing.org/) -->
<svg xmlns="http://www.w3.org/2000/svg" baseProfile="tiny" height="2.62003in" version="1.2" viewBox="0 0 1500 2620.03" width="1.5in" x="0in"  xmlns:svg="http://www.w3.org/2000/svg" y="0in">
 <g id="watermark" >
  <g >
   <g >
    <path d="M1156.5,2533.92c-8.38889,0,-15.7083,4.51389,-19.75,11.2361l-38.8333,0l55,-56.5417c2.02778,-2.02778,4.01389,-4.47222,5.94444,-7.23611c2.06944,-3.08333,3.16667,-6.65278,3.16667,-10.6667c0,-3.875,-1.34722,-7.19444,-3.98611,-9.86111c-2.63889,-2.61111,-6.16667,-3.98611,-10.4722,-3.98611l-64.3889,0c-4.23611,0,-7.70833,0.833333,-10.3056,2.36111c-3.04167,1.80556,-4.58333,5.11111,-4.58333,9.81944c0,4.56944,1.54167,7.80556,4.58333,9.61111c2.61111,1.54167,6.08333,2.33333,10.3056,2.33333l43.7222,0l-55.1944,56.75c-2.02778,2.04167,-4.01389,4.375,-5.90278,7c-2.125,2.94444,-3.19444,6.55556,-3.19444,10.7083c0,3.88889,1.33333,7.23611,4,9.875c2.61111,2.61111,6.13889,3.95833,10.4722,3.95833l59.9306,0c4.06944,6.48611,11.2778,10.7778,19.4444,10.7778c12.7222,0,23.0556,-10.3333,23.0556,-23.0694C1179.54,2544.26,1169.19,2533.92,1156.5,2533.92zM1156.5,2565.35c-4.63889,0,-8.38889,-3.76389,-8.38889,-8.38889c0,-4.625,3.75,-8.38889,8.38889,-8.38889c4.61111,0,8.38889,3.76389,8.38889,8.38889C1164.88,2561.61,1161.11,2565.35,1156.5,2565.35z" fill="#8C8C8C" />
    <path d="M921.18,2394.44c-12.6944,0,-23.0417,10.3472,-23.0417,23.0556c0,12.7222,10.3472,23.0556,23.0417,23.0556s23.0278,-10.3333,23.0278,-23.0556C944.236,2404.79,933.902,2394.44,921.18,2394.44zM921.194,2425.88c-4.625,0,-8.38889,-3.75,-8.38889,-8.375s3.76389,-8.375,8.38889,-8.375c4.59722,0,8.38889,3.75,8.38889,8.375S925.791,2425.88,921.194,2425.88z" fill="#8C8C8C" />
    <path d="M1039.53,2459.19c-2.68056,-1.54167,-6.09722,-2.34722,-10.1667,-2.34722l-20.3472,0L1009.01,2421.82c0,-4.05556,-0.791667,-7.47222,-2.30556,-10.125C1005.46,2409.51,1002.78,2406.94,997.083,2406.94c-4.72222,0,-8.02778,1.61111,-9.84722,4.75c-1.51389,2.68056,-2.31944,6.08333,-2.31944,10.125l0,35.0139l-6.68056,0c-4.09722,0,-7.48611,0.833333,-10.1528,2.34722c-3.16667,1.79167,-4.73611,5.11111,-4.73611,9.83333c0,5.72222,2.56944,8.375,4.73611,9.61111c2.66667,1.54167,6.08333,2.33333,10.1528,2.33333l6.68056,0l0,60.5833c0,3.84722,0.361111,7.40278,1.125,10.6667c0.777778,3.41667,2.13889,6.44444,4.13889,8.95833c2.02778,2.58333,4.79167,4.61111,8.26389,6.05556c3.34722,1.36111,7.70833,2.02778,12.9167,2.02778l12.4444,0c4.05556,0,7.48611,-0.75,10.1528,-2.30556c2.13889,-1.23611,4.73611,-3.90278,4.73611,-9.625c0,-4.69444,-1.58333,-8.02778,-4.73611,-9.84722c-2.66667,-1.51389,-6.09722,-2.33333,-10.1528,-2.33333l-11.4028,0c-1.91667,0,-2.63889,-0.263889,-2.875,-0.333333c-0.194444,-0.472222,-0.486111,-1.43056,-0.486111,-3.20833L1009.04,2480.97l20.3472,0c4.09722,0,7.51389,-0.791667,10.1944,-2.33333c2.11111,-1.25,4.72222,-3.88889,4.72222,-9.61111C1044.25,2464.31,1042.68,2460.99,1039.53,2459.19z" fill="#8C8C8C" />
    <path d="M922.097,2456.83l-16.5417,0c-4.05556,0,-7.47222,0.819444,-10.1528,2.34722c-3.13889,1.79167,-4.73611,5.11111,-4.73611,9.83333c0,5.72222,2.61111,8.38889,4.73611,9.59722c2.68056,1.56944,6.09722,2.33333,10.1528,2.33333l7.55556,0l0,74.4722c0,4.06944,0.791667,7.48611,2.31944,10.1389c1.81944,3.15278,5.09722,4.73611,9.83333,4.73611c5.70833,0,8.38889,-2.59722,9.61111,-4.73611c1.54167,-2.65278,2.33333,-6.08333,2.33333,-10.1389L937.208,2471.94c0,-5.36111,-1.16667,-9.11111,-3.55556,-11.5278C931.222,2458.03,927.472,2456.83,922.097,2456.83z" fill="#8C8C8C" />
    <path d="M868.833,2459.19c-2.68056,-1.54167,-6.11111,-2.34722,-10.1667,-2.34722l-8.38889,0c-3.47222,0,-6.91667,0.875,-10.1944,2.59722c-3.13889,1.65278,-6.01389,3.76389,-8.55556,6.29167l-8.94444,8.38889l0,-3.43056c0,-4.04167,-0.763889,-7.47222,-2.33333,-10.125c-1.77778,-3.16667,-5.11111,-4.72222,-9.81944,-4.72222c-5.69444,0,-8.38889,2.55556,-9.625,4.72222c-1.52778,2.65278,-2.31944,6.08333,-2.31944,10.125l0,66.6806c-6.59722,4.06944,-10.9861,11.3333,-10.9861,19.6111c0,12.7361,10.3472,23.0694,23.0278,23.0694c12.7222,0,23.0556,-10.3333,23.0556,-23.0694c0,-8.27778,-4.40278,-15.5417,-11,-19.6111l0,-30.6944l24.1389,-21.7222c1.38889,-1.25,2.76389,-2.27778,4.125,-3.01389c1.16667,-0.625,2.41667,-0.930556,3.80556,-0.930556l4,0c4.05556,0,7.48611,-0.777778,10.1667,-2.34722c2.15278,-1.22222,4.70833,-3.875,4.70833,-9.59722C873.555,2464.31,871.958,2460.99,868.833,2459.19zM810.514,2565.35c-4.61111,0,-8.375,-3.76389,-8.375,-8.38889c0,-4.625,3.76389,-8.38889,8.375,-8.38889c4.625,0,8.38889,3.76389,8.38889,8.38889C818.902,2561.61,815.139,2565.35,810.514,2565.35z" fill="#8C8C8C" />
    <path d="M775.555,2410.32c-2.68056,-1.54167,-6.11111,-2.31944,-10.1528,-2.31944l-8.19444,0c-2.77778,0,-5.40278,0.0555556,-7.80556,0.222222c-2.44444,0.125,-4.79167,0.486111,-7.02778,0.972222c-2.33333,0.569444,-4.66667,1.51389,-6.88889,2.80556c-2.19444,1.29167,-4.43056,3.08333,-6.66667,5.30556c-4.63889,4.36111,-7.69444,9.11111,-9.05556,14.125c-1.30556,4.83333,-1.98611,10.2083,-1.98611,15.9861l0,9.41667l-6.70833,0c-4.05556,0,-7.48611,0.819444,-10.1389,2.34722c-3.15278,1.80556,-4.75,5.125,-4.75,9.83333c0,5.72222,2.56944,8.38889,4.73611,9.625c2.65278,1.54167,6.08333,2.30556,10.1389,2.30556l6.70833,0l0,74.4722c0,4.06944,0.791667,7.48611,2.31944,10.1389c1.80556,3.15278,5.09722,4.73611,9.83333,4.73611c5.70833,0,8.375,-2.59722,9.61111,-4.73611c1.54167,-2.65278,2.33333,-6.08333,2.33333,-10.1389l0,-74.4444l12.7778,0c4.06944,0,7.5,-0.791667,10.1667,-2.33333c2.15278,-1.25,4.72222,-3.88889,4.72222,-9.61111c0,-4.72222,-1.58333,-8.04167,-4.72222,-9.83333c-2.625,-1.54167,-6.05556,-2.36111,-10.125,-2.36111l-12.7778,0l0,-9.41667c0,-3.02778,0.263889,-5.69444,0.777778,-7.93056c0.444444,-1.95833,1.43056,-3.625,3.02778,-5.09722l0.0277778,-0.0555556l0.0277778,-0.0277778c1.13889,-1.13889,2.44444,-1.75,4.02778,-1.88889c2.08333,-0.208333,4.70833,-0.305556,7.83333,-0.305556l7.77778,0c4.04167,0,7.48611,-0.805556,10.1528,-2.33333c2.13889,-1.22222,4.70833,-3.90278,4.70833,-9.625C780.277,2415.44,778.68,2412.13,775.555,2410.32z" fill="#8C8C8C" />
    <path d="M1497.68,2460.56c-1.23611,-2.16667,-3.91667,-4.72222,-9.625,-4.72222c-4.70833,0,-8.02778,1.56944,-9.81944,4.72222c-1.08333,1.84722,-1.76389,4.06944,-2.11111,6.625l-0.291667,-0.291667c-3,-3.27778,-6.47222,-5.83333,-10.375,-7.48611c-3.84722,-1.65278,-7.81944,-2.54167,-11.7917,-2.54167l-9.84722,0c-3.45833,0,-6.47222,0.208333,-8.88889,0.569444c-2.52778,0.361111,-4.88889,1.02778,-7.08333,1.94444c-2.19444,0.916667,-4.34722,2.08333,-6.375,3.52778c-1.93056,1.34722,-4.20833,3.13889,-6.75,5.23611c-2.61111,2.16667,-4.75,4.19444,-6.43056,6.02778c-1.76389,1.95833,-3.19444,4.06944,-4.25,6.31944c-0.958333,2.22222,-1.69444,4.68056,-2.04167,7.26389c-0.361111,2.47222,-0.569444,5.43056,-0.569444,8.76389l0,33.1389c0,3.33333,0.208333,6.26389,0.569444,8.76389c0.347222,2.61111,1.08333,5.01389,2.04167,7.23611c1.02778,2.27778,2.48611,4.41667,4.25,6.34722c1.65278,1.79167,3.80556,3.80556,6.43056,6.01389c2.58333,2.125,4.86111,3.88889,6.75,5.26389c2.02778,1.43056,4.15278,2.61111,6.375,3.52778c2.19444,0.902778,4.56944,1.55556,7.08333,1.94444c2.41667,0.361111,5.40278,0.541667,8.88889,0.541667l9.84722,0c4.13889,0,8.20833,-0.916667,12.0833,-2.76389c3.38889,-1.58333,6.83333,-4.04167,10.1389,-7.26389l0,19.9167c0,2.5,-0.347222,4.63889,-1,6.45833c-0.597222,1.65278,-2.20833,3.58333,-4.77778,5.63889c-2.13889,1.76389,-4.29167,3.01389,-6.34722,3.66667c-2.08333,0.680556,-4.73611,1.02778,-7.81944,1.02778l-30.5972,0c-4.06944,0,-7.47222,0.763889,-10.1667,2.30556c-2.11111,1.22222,-4.72222,3.91667,-4.72222,9.61111c0,4.73611,1.59722,8.04167,4.72222,9.86111c2.69444,1.51389,6.09722,2.31944,10.1667,2.31944l32.3056,0c3.43056,0,6.43056,-0.208333,8.86111,-0.569444c2.48611,-0.361111,4.875,-1.01389,7.125,-1.94444c2.125,-0.888889,4.30556,-2.08333,6.31944,-3.52778c1.98611,-1.40278,4.23611,-3.15278,6.76389,-5.26389c2.56944,-2.125,4.76389,-4.15278,6.43056,-5.98611c1.77778,-1.95833,3.18056,-4.08333,4.22222,-6.33333c0.986111,-2.25,1.70833,-4.69444,2.05556,-7.26389c0.347222,-2.52778,0.569444,-5.45833,0.569444,-8.76389l0,-109.694C1500,2466.64,1499.25,2463.21,1497.68,2460.56zM1475.89,2522.5c0,2.61111,-0.861111,4.86111,-2.61111,6.80556c-2.08333,2.38889,-5.47222,5.59722,-9.94444,9.52778l-0.0277778,0.0416667l-0.0277778,0.0555556c-1.93056,1.80556,-4.04167,3.29167,-6.29167,4.51389c-2.05556,1.13889,-4.51389,1.68056,-7.30556,1.68056L1445.5,2545.13c-3.08333,0,-5.69444,-0.291667,-7.81944,-1c-2.05556,-0.680556,-4.18056,-1.90278,-6.29167,-3.66667c-3.20833,-2.58333,-4.375,-4.47222,-4.80556,-5.61111c-0.680556,-1.81944,-1,-3.95833,-1,-6.45833l0,-30.6389c0,-2.5,0.319444,-4.66667,1,-6.48611c0.402778,-1.13889,1.56944,-3.01389,4.80556,-5.59722c2.11111,-1.76389,4.23611,-3,6.29167,-3.68056c2.125,-0.680556,4.75,-1,7.81944,-1l4.18056,0c2.94444,0,5.38889,0.513889,7.30556,1.56944c2.11111,1.13889,4.27778,2.65278,6.34722,4.5c4.47222,4.06944,7.83333,7.34722,9.94444,9.72222c1.77778,2.02778,2.61111,4.22222,2.61111,6.83333L1475.89,2522.5z" fill="#8C8C8C" />
    <path d="M1220.19,2394.44c-12.6944,0,-23.0556,10.3472,-23.0556,23.0556c0,12.7222,10.3611,23.0556,23.0556,23.0556s23.0556,-10.3333,23.0556,-23.0556C1243.25,2404.79,1232.89,2394.44,1220.19,2394.44zM1220.19,2425.88c-4.61111,0,-8.38889,-3.75,-8.38889,-8.375s3.76389,-8.375,8.38889,-8.375s8.38889,3.75,8.38889,8.375C1228.58,2422.13,1224.81,2425.88,1220.19,2425.88z" fill="#8C8C8C" />
    <path d="M1368.61,2537.06l-1.48611,-47.4861c-0.152778,-2.47222,-0.291667,-4.69444,-0.430556,-6.79167c-0.138889,-2.25,-0.513889,-4.47222,-1.13889,-6.61111c-0.625,-2.19444,-1.52778,-4.29167,-2.75,-6.29167c-1.29167,-2.02778,-3,-4.01389,-5.13889,-5.83333c-3.125,-2.66667,-6.15278,-4.63889,-8.97222,-5.77778c-2.875,-1.16667,-6.40278,-1.76389,-10.4722,-1.76389l-14.0556,0c-3.59722,0,-6.95833,0.805556,-9.94444,2.27778c-2.73611,1.36111,-5.41667,2.81944,-7.94444,4.375l-0.0416667,0.0277778l-0.0416667,0.0416667l-11.625,7.70833l0,-0.569444c0,-4.04167,-0.791667,-7.48611,-2.33333,-10.1806c-1.79167,-3.13889,-5.09722,-4.70833,-9.81944,-4.70833c-5.70833,0,-8.38889,2.56944,-9.625,4.70833c-1.51389,2.69444,-2.33333,6.08333,-2.33333,10.1806l0,84.7083c0,4.09722,0.819444,7.48611,2.33333,10.1944c1.25,2.125,3.91667,4.69444,9.625,4.69444c4.72222,0,8.02778,-1.58333,9.81944,-4.69444c1.54167,-2.70833,2.33333,-6.09722,2.33333,-10.1944L1294.57,2499.03l27.125,-16.875c0.555556,-0.333333,1.13889,-0.666667,1.68056,-0.875c0.430556,-0.222222,0.972222,-0.347222,1.59722,-0.430556c0.680556,-0.166667,1.625,-0.222222,2.70833,-0.222222l5.02778,0c2.61111,0,4.63889,0.291667,6.04167,0.819444c1.13889,0.402778,1.98611,1.05556,2.5,1.98611c0.694444,1.08333,1.11111,2.5,1.36111,4.20833c0.277778,1.93056,0.472222,4.29167,0.625,7l1.33333,43.0139c-6.34722,4.125,-10.5833,11.2639,-10.5833,19.3611c0,12.7361,10.3611,23.0694,23.0556,23.0694c12.7222,0,23.0556,-10.3333,23.0556,-23.0694C1380.08,2548.51,1375.46,2541.04,1368.61,2537.06zM1357.03,2565.35c-4.63889,0,-8.36111,-3.76389,-8.36111,-8.38889c0,-4.625,3.72222,-8.38889,8.36111,-8.38889c4.625,0,8.38889,3.76389,8.38889,8.38889C1365.43,2561.61,1361.65,2565.35,1357.03,2565.35z" fill="#8C8C8C" />
    <path d="M1221.07,2456.83l-16.5694,0c-4.06944,0,-7.48611,0.819444,-10.1528,2.34722c-3.13889,1.79167,-4.73611,5.11111,-4.73611,9.83333c0,5.72222,2.58333,8.38889,4.73611,9.59722c2.66667,1.56944,6.08333,2.33333,10.1528,2.33333l7.56944,0l0,74.4722c0,4.06944,0.763889,7.48611,2.33333,10.1389c1.76389,3.15278,5.06944,4.73611,9.81944,4.73611c5.69444,0,8.38889,-2.59722,9.59722,-4.73611c1.54167,-2.65278,2.36111,-6.08333,2.36111,-10.1389L1236.18,2471.94c0,-5.36111,-1.18056,-9.11111,-3.59722,-11.5278C1230.19,2458.03,1226.4,2456.83,1221.07,2456.83z" fill="#8C8C8C" />
   </g>
  </g>
 </g>
 <g partID="90000020">
  <g id="schematic">
   <rect class="interior rect" fill="#FFFFFF" height="1887.5" stroke="#000000" stroke-linecap="round" stroke-width="12.5" width="1087.5" x="206.25" y="206.25"/>
   <line class="pin" fill="none" id="connector61pin" stroke="#787878" stroke-linecap="round" stroke-width="9.7222" x1="1295.14" x2="1495.14" y1="400" y2="400"/>
   <text class="text" fill="#8c8c8c" font-family="'Droid Sans'" font-size="48.611" stroke="none" stroke-width="0" text-anchor="end" x="1275.69" y="409.72">D0/RX</text>
   <g class="terminal" fill="none" height="9.7222" id="connector61terminal" stroke="none" stroke-width="0" width="9.7222" x="1495.14" y="395.138"/>
   <line class="pin" fill="none" id="connector62pin" stroke="#787878" stroke-linecap="round" stroke-width="9.7222" x1="1295.14" x2="1495.14" y1="500" y2="500"/>
   <text class="text" fill="#8c8c8c" font-family="'Droid Sans'" font-size="48.611" stroke="none" stroke-width="0" text-anchor="end" x="1275.69" y="509.72">D1/TX</text>
   <g class="terminal" fill="none" height="9.7222" id="connector62terminal" stroke="none" stroke-width="0" width="9.7222" x="1495.14" y="495.138"/>
   <line class="pin" fill="none" id="connector63pin" stroke="#787878" stroke-linecap="round" stroke-width="9.7222" x1="1295.14" x2="1495.14" y1="600" y2="600"/>
   <text class="text" fill="#8c8c8c" font-family="'Droid Sans'" font-size="48.611" stroke="none" stroke-width="0" text-anchor="end" x="1275.69" y="609.72">D2</text>
   <g class="terminal" fill="none" height="9.7222" id="connector63terminal" stroke="none" stroke-width="0" width="9.7222" x="1495.14" y="595.138"/>
   <line class="pin" fill="none" id="connector64pin" stroke="#787878" stroke-linecap="round" stroke-width="9.7222" x1="1295.14" x2="1495.14" y1="700" y2="700"/>
   <text class="text" fill="#8c8c8c" font-family="'Droid Sans'" font-size="48.611" stroke="none" stroke-width="0" text-anchor="end" x="1275.69" y="709.72">D3 PWM</text>
   <g class="terminal" fill="none" height="9.7222" id="connector64terminal" stroke="none" stroke-width="0" width="9.7222" x="1495.14" y="695.138"/>
   <line class="pin" fill="none" id="connector65pin" stroke="#787878" stroke-linecap="round" stroke-width="9.7222" x1="1295.14" x2="1495.14" y1="800" y2="800"/>
   <text class="text" fill="#8c8c8c" font-family="'Droid Sans'" font-size="48.611" stroke="none" stroke-width="0" text-anchor="end" x="1275.69" y="809.72">D4</text>
   <g class="terminal" fill="none" height="9.7222" id="connector65terminal" stroke="none" stroke-width="0" width="9.7222" x="1495.14" y="795.138"/>
   <line class="pin" fill="none" id="connector66pin" stroke="#787878" stroke-linecap="round" stroke-width="9.7222" x1="1295.14" x2="1495.14" y1="900" y2="900"/>
   <text class="text" fill="#8c8c8c" font-family="'Droid Sans'" font-size="48.611" stroke="none" stroke-width="0" text-anchor="end" x="1275.69" y="909.72">D5 PWM</text>
   <g class="terminal" fill="none" height="9.7222" id="connector66terminal" stroke="none" stroke-width="0" width="9.7222" x="1495.14" y="895.138"/>
   <line class="pin" fill="none" id="connector67pin" stroke="#787878" stroke-linecap="round" stroke-width="9.7222" x1="1295.14" x2="1495.14" y1="1000" y2="1000"/>
   <text class="text" fill="#8c8c8c" font-family="'Droid Sans'" font-size="48.611" stroke="none" stroke-width="0" text-anchor="end" x="1275.69" y="1009.72">D6 PWM</text>
   <g class="terminal" fill="none" height="9.7222" id="connector67terminal" stroke="none" stroke-width="0" width="9.7222" x="1495.14" y="995.138"/>
   <line class="pin" fill="none" id="connector68pin" stroke="#787878" stroke-linecap="round" stroke-width="9.7222" x1="1295.14" x2="1495.14" y1="1100" y2="1100"/>
   <text class="text" fill="#8c8c8c" font-family="'Droid Sans'" font-size="48.611" stroke="none" stroke-width="0" text-anchor="end" x="1275.69" y="1109.72">D7</text>
   <g class="terminal" fill="none" height="9.7222" id="connector68terminal" stroke="none" stroke-width="0" width="9.7222" x="1495.14" y="1095.14"/>
   <line class="pin" fill="none" id="connector51pin" stroke="#787878" stroke-linecap="round" stroke-width="9.7222" x1="1295.14" x2="1495.14" y1="1200" y2="1200"/>
   <text class="text" fill="#8c8c8c" font-family="'Droid Sans'" font-size="48.611" stroke="none" stroke-width="0" text-anchor="end" x="1275.69" y="1209.72">D8</text>
   <g class="terminal" fill="none" height="9.7222" id="connector51terminal" stroke="none" stroke-width="0" width="9.7222" x="1495.14" y="1195.14"/>
   <line class="pin" fill="none" id="connector52pin" stroke="#787878" stroke-linecap="round" stroke-width="9.7222" x1="1295.14" x2="1495.14" y1="1300" y2="1300"/>
   <text class="text" fill="#8c8c8c" font-family="'Droid Sans'" font-size="48.611" stroke="none" stroke-width="0" text-anchor="end" x="1275.69" y="1309.72">D9 PWM</text>
   <g class="terminal" fill="none" height="9.7222" id="connector52terminal" stroke="none" stroke-width="0" width="9.7222" x="1495.14" y="1295.14"/>
   <line class="pin" fill="none" id="connector53pin" stroke="#787878" stroke-linecap="round" stroke-width="9.7222" x1="1295.14" x2="1495.14" y1="1400" y2="1400"/>
   <text class="text" fill="#8c8c8c" font-family="'Droid Sans'" font-size="48.611" stroke="none" stroke-width="0" text-anchor="end" x="1275.69" y="1409.72">D10 PWM/SS</text>
   <g class="terminal" fill="none" height="9.7222" id="connector53terminal" stroke="none" stroke-width="0" width="9.7222" x="1495.14" y="1395.14"/>
   <line class="pin" fill="none" id="connector54pin" stroke="#787878" stroke-linecap="round" stroke-width="9.7222" x1="1295.14" x2="1495.14" y1="1500" y2="1500"/>
   <text class="text" fill="#8c8c8c" font-family="'Droid Sans'" font-size="48.611" stroke="none" stroke-width="0" text-anchor="end" x="1275.69" y="1509.72">D11 PWM/MOSI</text>
   <g class="terminal" fill="none" height="9.7222" id="connector54terminal" stroke="none" stroke-width="0" width="9.7222" x="1495.14" y="1495.14"/>
   <line class="pin" fill="none" id="connector55pin" stroke="#787878" stroke-linecap="round" stroke-width="9.7222" x1="1295.14" x2="1495.14" y1="1600" y2="1600"/>
   <text class="text" fill="#8c8c8c" font-family="'Droid Sans'" font-size="48.611" stroke="none" stroke-width="0" text-anchor="end" x="1275.69" y="1609.72">D12/MISO</text>
   <g class="terminal" fill="none" height="9.7222" id="connector55terminal" stroke="none" stroke-width="0" width="9.7222" x="1495.14" y="1595.14"/>
   <line class="pin" fill="none" id="connector41pin" stroke="none" stroke-linecap="round" stroke-width="0" x1="1295.14" x2="1495.14" y1="1700" y2="1700"/>
   <rect class="terminal" fill="none" height="9.7222" id="connector41terminal" stroke="none" stroke-width="0" width="9.7222" x="1495.14" y="1695.14"/>
   <line class="pin" fill="none" id="connector56pin" stroke="#787878" stroke-linecap="round" stroke-width="9.7222" x1="1295.14" x2="1495.14" y1="1700" y2="1700"/>
   <text class="text" fill="#8c8c8c" font-family="'Droid Sans'" font-size="48.611" stroke="none" stroke-width="0" text-anchor="end" x="1275.69" y="1709.72">D13/SCK</text>
   <g class="terminal" fill="none" height="9.7222" id="connector56terminal" stroke="none" stroke-width="0" width="9.7222" x="1495.14" y="1695.14"/>
   <line class="pin" fill="none" id="connector43pin" stroke="none" stroke-linecap="round" stroke-width="0" x1="4.8611" x2="204.861" y1="400" y2="400"/>
   <rect class="terminal" fill="none" height="9.7222" id="connector43terminal" stroke="none" stroke-width="0" width="9.7222" x="-4.8611" y="395.138"/>
   <line class="pin" fill="none" id="connector85pin" stroke="#787878" stroke-linecap="round" stroke-width="9.7222" x1="4.8611" x2="204.861" y1="400" y2="400"/>
   <text class="text" fill="#8c8c8c" font-family="'Droid Sans'" font-size="48.611" stroke="none" stroke-width="0" text-anchor="start" x="224.306" y="409.72">RESET</text>
   <g class="terminal" fill="none" height="9.7222" id="connector85terminal" stroke="none" stroke-width="0" width="9.7222" x="-4.8611" y="395.138"/>
   <line class="pin" fill="none" id="connector49pin" stroke="#787878" stroke-linecap="round" stroke-width="9.7222" x1="4.8611" x2="204.861" y1="500" y2="500"/>
   <text class="text" fill="#8c8c8c" font-family="'Droid Sans'" font-size="48.611" stroke="none" stroke-width="0" text-anchor="start" x="224.306" y="509.72">RESET2</text>
   <rect class="terminal" fill="none" height="9.7222" id="connector49terminal" stroke="none" stroke-width="0" width="9.7222" x="-4.8611" y="495.138"/>
   <line class="pin" fill="none" id="connector58pin" stroke="#787878" stroke-linecap="round" stroke-width="9.7222" x1="4.8611" x2="204.861" y1="600" y2="600"/>
   <text class="text" fill="#8c8c8c" font-family="'Droid Sans'" font-size="48.611" stroke="none" stroke-width="0" text-anchor="start" x="224.306" y="609.72">AREF</text>
   <g class="terminal" fill="none" height="9.7222" id="connector58terminal" stroke="none" stroke-width="0" width="9.7222" x="-4.8611" y="595.138"/>
   <line class="pin" fill="none" id="connector84pin" stroke="#787878" stroke-linecap="round" stroke-width="9.7222" x1="4.8611" x2="204.861" y1="700" y2="700"/>
   <text class="text" fill="#8c8c8c" font-family="'Droid Sans'" font-size="48.611" stroke="none" stroke-width="0" text-anchor="start" x="224.306" y="709.72">ioref</text>
   <g class="terminal" fill="none" height="9.7222" id="connector84terminal" stroke="none" stroke-width="0" width="9.7222" x="-4.8611" y="695.138"/>
   <line class="pin" fill="none" id="connector0pin" stroke="#787878" stroke-linecap="round" stroke-width="9.7222" x1="4.8611" x2="204.861" y1="900" y2="900"/>
   <text class="text" fill="#8c8c8c" font-family="'Droid Sans'" font-size="48.611" stroke="none" stroke-width="0" text-anchor="start" x="224.306" y="909.72">A0</text>
   <g class="terminal" fill="none" height="9.7222" id="connector0terminal" stroke="none" stroke-width="0" width="9.7222" x="-4.8611" y="895.138"/>
   <line class="pin" fill="none" id="connector1pin" stroke="#787878" stroke-linecap="round" stroke-width="9.7222" x1="4.8611" x2="204.861" y1="1000" y2="1000"/>
   <text class="text" fill="#8c8c8c" font-family="'Droid Sans'" font-size="48.611" stroke="none" stroke-width="0" text-anchor="start" x="224.306" y="1009.72">A1</text>
   <g class="terminal" fill="none" height="9.7222" id="connector1terminal" stroke="none" stroke-width="0" width="9.7222" x="-4.8611" y="995.138"/>
   <line class="pin" fill="none" id="connector2pin" stroke="#787878" stroke-linecap="round" stroke-width="9.7222" x1="4.8611" x2="204.861" y1="1100" y2="1100"/>
   <text class="text" fill="#8c8c8c" font-family="'Droid Sans'" font-size="48.611" stroke="none" stroke-width="0" text-anchor="start" x="224.306" y="1109.72">A2</text>
   <g class="terminal" fill="none" height="9.7222" id="connector2terminal" stroke="none" stroke-width="0" width="9.7222" x="-4.8611" y="1095.14"/>
   <line class="pin" fill="none" id="connector3pin" stroke="#787878" stroke-linecap="round" stroke-width="9.7222" x1="4.8611" x2="204.861" y1="1200" y2="1200"/>
   <text class="text" fill="#8c8c8c" font-family="'Droid Sans'" font-size="48.611" stroke="none" stroke-width="0" text-anchor="start" x="224.306" y="1209.72">A3</text>
   <g class="terminal" fill="none" height="9.7222" id="connector3terminal" stroke="none" stroke-width="0" width="9.7222" x="-4.8611" y="1195.14"/>
   <line class="pin" fill="none" id="connector48pin" stroke="none" stroke-linecap="round" stroke-width="0" x1="4.8611" x2="204.861" y1="1300" y2="1300"/>
   <rect class="terminal" fill="none" height="9.7222" id="connector48terminal" stroke="none" stroke-width="0" width="9.7222" x="-4.8611" y="1295.14"/>
   <line class="pin" fill="none" id="connector45pin" stroke="none" stroke-linecap="round" stroke-width="0" x1="4.8611" x2="204.861" y1="1300" y2="1300"/>
   <rect class="terminal" fill="none" height="9.7222" id="connector45terminal" stroke="none" stroke-width="0" width="9.7222" x="-4.8611" y="1295.14"/>
   <line class="pin" fill="none" id="connector4pin" stroke="none" stroke-linecap="round" stroke-width="0" x1="4.8611" x2="204.861" y1="1300" y2="1300"/>
   <g class="terminal" fill="none" height="9.7222" id="connector4terminal" stroke="none" stroke-width="0" width="9.7222" x="-4.8611" y="1295.14"/>
   <line class="pin" fill="none" id="connector39pin" stroke="none" stroke-linecap="round" stroke-width="0" x1="4.8611" x2="204.861" y1="1300" y2="1300"/>
   <rect class="terminal" fill="none" height="9.7222" id="connector39terminal" stroke="none" stroke-width="0" width="9.7222" x="-4.8611" y="1295.14"/>
   <line class="pin" fill="none" id="connector47pin" stroke="none" stroke-linecap="round" stroke-width="0" x1="4.8611" x2="204.861" y1="1300" y2="1300"/>
   <rect class="terminal" fill="none" height="9.7222" id="connector47terminal" stroke="none" stroke-width="0" width="9.7222" x="-4.8611" y="1295.14"/>
   <line class="pin" fill="none" id="connector42pin" stroke="none" stroke-linecap="round" stroke-width="0" x1="4.8611" x2="204.861" y1="1300" y2="1300"/>
   <rect class="terminal" fill="none" height="9.7222" id="connector42terminal" stroke="none" stroke-width="0" width="9.7222" x="-4.8611" y="1295.14"/>
   <line class="pin" fill="none" id="connector59pin" stroke="#787878" stroke-linecap="round" stroke-width="9.7222" x1="4.8611" x2="204.861" y1="1300" y2="1300"/>
   <text class="text" fill="#8c8c8c" font-family="'Droid Sans'" font-size="48.611" stroke="none" stroke-width="0" text-anchor="start" x="224.306" y="1309.72">A4/SDA</text>
   <g class="terminal" fill="none" height="9.7222" id="connector59terminal" stroke="none" stroke-width="0" width="9.7222" x="-4.8611" y="1295.14"/>
   <line class="pin" fill="none" id="connector5pin" stroke="none" stroke-linecap="round" stroke-width="0" x1="4.8611" x2="204.861" y1="1400" y2="1400"/>
   <g class="terminal" fill="none" height="9.7222" id="connector5terminal" stroke="none" stroke-width="0" width="9.7222" x="-4.8611" y="1395.14"/>
   <line class="pin" fill="none" id="connector60pin" stroke="#787878" stroke-linecap="round" stroke-width="9.7222" x1="4.8611" x2="204.861" y1="1400" y2="1400"/>
   <text class="text" fill="#8c8c8c" font-family="'Droid Sans'" font-size="48.611" stroke="none" stroke-width="0" text-anchor="start" x="224.306" y="1409.72">A5/SCL</text>
   <g class="terminal" fill="none" height="9.7222" id="connector60terminal" stroke="none" stroke-width="0" width="9.7222" x="-4.8611" y="1395.14"/>
   <line class="pin" fill="none" id="connector91pin" stroke="#787878" stroke-linecap="round" stroke-width="9.7222" x1="4.8611" x2="204.861" y1="1900" y2="1900"/>
   <text class="text" fill="#8c8c8c" font-family="'Droid Sans'" font-size="48.611" stroke="none" stroke-width="0" text-anchor="start" x="224.306" y="1909.72">N/C</text>
   <g class="terminal" fill="none" height="9.7222" id="connector91terminal" stroke="none" stroke-width="0" width="9.7222" x="-4.8611" y="1895.14"/>
   <line class="pin" fill="none" id="connector88pin" stroke="none" stroke-linecap="round" stroke-width="0" x1="800" x2="800" y1="2095.14" y2="2295.14"/>
   <g class="terminal" fill="none" height="9.7222" id="connector88terminal" stroke="none" stroke-width="0" width="9.7222" x="795.138" y="2295.14"/>
   <line class="pin" fill="none" id="connector57pin" stroke="none" stroke-linecap="round" stroke-width="0" x1="800" x2="800" y1="2095.14" y2="2295.14"/>
   <g class="terminal" fill="none" height="9.7222" id="connector57terminal" stroke="none" stroke-width="0" width="9.7222" x="795.138" y="2295.14"/>
   <line class="pin" fill="none" id="connector44pin" stroke="none" stroke-linecap="round" stroke-width="0" x1="800" x2="800" y1="2095.14" y2="2295.14"/>
   <rect class="terminal" fill="none" height="9.7222" id="connector44terminal" stroke="none" stroke-width="0" width="9.7222" x="795.138" y="2295.14"/>
   <line class="pin" fill="none" id="connector50pin" stroke="none" stroke-linecap="round" stroke-width="0" x1="800" x2="800" y1="2095.14" y2="2295.14"/>
   <rect class="terminal" fill="none" height="9.7222" id="connector50terminal" stroke="none" stroke-width="0" width="9.7222" x="795.138" y="2295.14"/>
   <line class="pin" fill="none" id="connector89pin" stroke="#787878" stroke-linecap="round" stroke-width="9.7222" x1="800" x2="800" y1="2095.14" y2="2295.14"/>
   <g transform="matrix(1, 0, 0, 1, 809.72, 2075.69)">
    <g>
     <g transform="rotate(270)">
      <g>
       <text class="text" fill="#8c8c8c" font-family="'Droid Sans'" font-size="48.611" stroke="none" stroke-width="0" text-anchor="start" x="0" y="0">GND</text>
      </g>
     </g>
    </g>
   </g>
   <g class="terminal" fill="none" height="9.7222" id="connector89terminal" stroke="none" stroke-width="0" width="9.7222" x="795.138" y="2295.14"/>
   <line class="pin" fill="none" id="connector86pin" stroke="#787878" stroke-linecap="round" stroke-width="9.7222" x1="500" x2="500" y1="4.8611" y2="204.861"/>
   <g transform="matrix(1, 0, 0, 1, 509.72, 224.306)">
    <g>
     <g transform="rotate(270)">
      <g>
       <text class="text" fill="#8c8c8c" font-family="'Droid Sans'" font-size="48.611" stroke="none" stroke-width="0" text-anchor="end" x="0" y="0">3V3</text>
      </g>
     </g>
    </g>
   </g>
   <g class="terminal" fill="none" height="9.7222" id="connector86terminal" stroke="none" stroke-width="0" width="9.7222" x="495.138" y="-4.8611"/>
   <line class="pin" fill="none" id="connector40pin" stroke="none" stroke-linecap="round" stroke-width="0" x1="700" x2="700" y1="4.8611" y2="204.861"/>
   <rect class="terminal" fill="none" height="9.7222" id="connector40terminal" stroke="none" stroke-width="0" width="9.7222" x="695.138" y="-4.8611"/>
   <line class="pin" fill="none" id="connector46pin" stroke="none" stroke-linecap="round" stroke-width="0" x1="700" x2="700" y1="4.8611" y2="204.861"/>
   <rect class="terminal" fill="none" height="9.7222" id="connector46terminal" stroke="none" stroke-width="0" width="9.7222" x="695.138" y="-4.8611"/>
   <line class="pin" fill="none" id="connector87pin" stroke="#787878" stroke-linecap="round" stroke-width="9.7222" x1="700" x2="700" y1="4.8611" y2="204.861"/>
   <g transform="matrix(1, 0, 0, 1, 709.72, 224.306)">
    <g>
     <g transform="rotate(270)">
      <g>
       <text class="text" fill="#8c8c8c" font-family="'Droid Sans'" font-size="48.611" stroke="none" stroke-width="0" text-anchor="end" x="0" y="0">5V</text>
      </g>
     </g>
    </g>
   </g>
   <g class="terminal" fill="none" height="9.7222" id="connector87terminal" stroke="none" stroke-width="0" width="9.7222" x="695.138" y="-4.8611"/>
   <line class="pin" fill="none" id="connector90pin" stroke="#787878" stroke-linecap="round" stroke-width="9.7222" x1="900" x2="900" y1="4.8611" y2="204.861"/>
   <g transform="matrix(1, 0, 0, 1, 909.72, 224.306)">
    <g>
     <g transform="rotate(270)">
      <g>
       <text class="text" fill="#8c8c8c" font-family="'Droid Sans'" font-size="48.611" stroke="none" stroke-width="0" text-anchor="end" x="0" y="0">VIN</text>
      </g>
     </g>
    </g>
   </g>
   <g class="terminal" fill="none" height="9.7222" id="connector90terminal" stroke="none" stroke-width="0" width="9.7222" x="895.138" y="-4.8611"/>
   <text class="text" fill="#000000" font-family="'Droid Sans'" font-size="59.028" id="label" stroke="none" stroke-width="0" text-anchor="middle" x="756.252" y="1061.8">Arduino</text>
   <text class="text" fill="#000000" font-family="'Droid Sans'" font-size="59.028" id="label" stroke="none" stroke-width="0" text-anchor="middle" x="756.252" y="1124.77">Uno</text>
   <text class="text" fill="#000000" font-family="'Droid Sans'" font-size="59.028" id="label" stroke="none" stroke-width="0" text-anchor="middle" x="756.252" y="1187.73">(Rev3)</text>
  </g>
 </g>
</svg>
